%TF.GenerationSoftware,KiCad,Pcbnew,8.0.1*%
%TF.CreationDate,2024-04-11T09:01:24+02:00*%
%TF.ProjectId,ConditionneurV2,436f6e64-6974-4696-9f6e-6e6575725632,rev?*%
%TF.SameCoordinates,Original*%
%TF.FileFunction,Copper,L1,Top*%
%TF.FilePolarity,Positive*%
%FSLAX46Y46*%
G04 Gerber Fmt 4.6, Leading zero omitted, Abs format (unit mm)*
G04 Created by KiCad (PCBNEW 8.0.1) date 2024-04-11 09:01:24*
%MOMM*%
%LPD*%
G01*
G04 APERTURE LIST*
G04 Aperture macros list*
%AMRoundRect*
0 Rectangle with rounded corners*
0 $1 Rounding radius*
0 $2 $3 $4 $5 $6 $7 $8 $9 X,Y pos of 4 corners*
0 Add a 4 corners polygon primitive as box body*
4,1,4,$2,$3,$4,$5,$6,$7,$8,$9,$2,$3,0*
0 Add four circle primitives for the rounded corners*
1,1,$1+$1,$2,$3*
1,1,$1+$1,$4,$5*
1,1,$1+$1,$6,$7*
1,1,$1+$1,$8,$9*
0 Add four rect primitives between the rounded corners*
20,1,$1+$1,$2,$3,$4,$5,0*
20,1,$1+$1,$4,$5,$6,$7,0*
20,1,$1+$1,$6,$7,$8,$9,0*
20,1,$1+$1,$8,$9,$2,$3,0*%
G04 Aperture macros list end*
%ADD10C,0.300000*%
%TA.AperFunction,NonConductor*%
%ADD11C,0.300000*%
%TD*%
%TA.AperFunction,ComponentPad*%
%ADD12R,1.700000X1.700000*%
%TD*%
%TA.AperFunction,SMDPad,CuDef*%
%ADD13RoundRect,0.150000X-0.825000X-0.150000X0.825000X-0.150000X0.825000X0.150000X-0.825000X0.150000X0*%
%TD*%
%TA.AperFunction,SMDPad,CuDef*%
%ADD14RoundRect,0.250000X-0.450000X0.262500X-0.450000X-0.262500X0.450000X-0.262500X0.450000X0.262500X0*%
%TD*%
%TA.AperFunction,SMDPad,CuDef*%
%ADD15RoundRect,0.250000X0.450000X-0.262500X0.450000X0.262500X-0.450000X0.262500X-0.450000X-0.262500X0*%
%TD*%
%TA.AperFunction,SMDPad,CuDef*%
%ADD16RoundRect,0.250000X-0.262500X-0.450000X0.262500X-0.450000X0.262500X0.450000X-0.262500X0.450000X0*%
%TD*%
%TA.AperFunction,SMDPad,CuDef*%
%ADD17RoundRect,0.250000X0.262500X0.450000X-0.262500X0.450000X-0.262500X-0.450000X0.262500X-0.450000X0*%
%TD*%
%TA.AperFunction,ComponentPad*%
%ADD18R,1.600000X1.600000*%
%TD*%
%TA.AperFunction,ComponentPad*%
%ADD19O,1.600000X1.600000*%
%TD*%
%TA.AperFunction,Conductor*%
%ADD20C,0.200000*%
%TD*%
%TA.AperFunction,Conductor*%
%ADD21C,0.350000*%
%TD*%
G04 APERTURE END LIST*
D10*
D11*
X116590225Y-93372257D02*
X116447368Y-93300828D01*
X116447368Y-93300828D02*
X116233082Y-93300828D01*
X116233082Y-93300828D02*
X116018796Y-93372257D01*
X116018796Y-93372257D02*
X115875939Y-93515114D01*
X115875939Y-93515114D02*
X115804510Y-93657971D01*
X115804510Y-93657971D02*
X115733082Y-93943685D01*
X115733082Y-93943685D02*
X115733082Y-94157971D01*
X115733082Y-94157971D02*
X115804510Y-94443685D01*
X115804510Y-94443685D02*
X115875939Y-94586542D01*
X115875939Y-94586542D02*
X116018796Y-94729400D01*
X116018796Y-94729400D02*
X116233082Y-94800828D01*
X116233082Y-94800828D02*
X116375939Y-94800828D01*
X116375939Y-94800828D02*
X116590225Y-94729400D01*
X116590225Y-94729400D02*
X116661653Y-94657971D01*
X116661653Y-94657971D02*
X116661653Y-94157971D01*
X116661653Y-94157971D02*
X116375939Y-94157971D01*
X117304510Y-94800828D02*
X117304510Y-93800828D01*
X117304510Y-94086542D02*
X117375939Y-93943685D01*
X117375939Y-93943685D02*
X117447368Y-93872257D01*
X117447368Y-93872257D02*
X117590225Y-93800828D01*
X117590225Y-93800828D02*
X117733082Y-93800828D01*
X118447367Y-94800828D02*
X118304510Y-94729400D01*
X118304510Y-94729400D02*
X118233081Y-94657971D01*
X118233081Y-94657971D02*
X118161653Y-94515114D01*
X118161653Y-94515114D02*
X118161653Y-94086542D01*
X118161653Y-94086542D02*
X118233081Y-93943685D01*
X118233081Y-93943685D02*
X118304510Y-93872257D01*
X118304510Y-93872257D02*
X118447367Y-93800828D01*
X118447367Y-93800828D02*
X118661653Y-93800828D01*
X118661653Y-93800828D02*
X118804510Y-93872257D01*
X118804510Y-93872257D02*
X118875939Y-93943685D01*
X118875939Y-93943685D02*
X118947367Y-94086542D01*
X118947367Y-94086542D02*
X118947367Y-94515114D01*
X118947367Y-94515114D02*
X118875939Y-94657971D01*
X118875939Y-94657971D02*
X118804510Y-94729400D01*
X118804510Y-94729400D02*
X118661653Y-94800828D01*
X118661653Y-94800828D02*
X118447367Y-94800828D01*
X120233082Y-93800828D02*
X120233082Y-94800828D01*
X119590224Y-93800828D02*
X119590224Y-94586542D01*
X119590224Y-94586542D02*
X119661653Y-94729400D01*
X119661653Y-94729400D02*
X119804510Y-94800828D01*
X119804510Y-94800828D02*
X120018796Y-94800828D01*
X120018796Y-94800828D02*
X120161653Y-94729400D01*
X120161653Y-94729400D02*
X120233082Y-94657971D01*
X120947367Y-93800828D02*
X120947367Y-95300828D01*
X120947367Y-93872257D02*
X121090225Y-93800828D01*
X121090225Y-93800828D02*
X121375939Y-93800828D01*
X121375939Y-93800828D02*
X121518796Y-93872257D01*
X121518796Y-93872257D02*
X121590225Y-93943685D01*
X121590225Y-93943685D02*
X121661653Y-94086542D01*
X121661653Y-94086542D02*
X121661653Y-94515114D01*
X121661653Y-94515114D02*
X121590225Y-94657971D01*
X121590225Y-94657971D02*
X121518796Y-94729400D01*
X121518796Y-94729400D02*
X121375939Y-94800828D01*
X121375939Y-94800828D02*
X121090225Y-94800828D01*
X121090225Y-94800828D02*
X120947367Y-94729400D01*
X122875939Y-94729400D02*
X122733082Y-94800828D01*
X122733082Y-94800828D02*
X122447368Y-94800828D01*
X122447368Y-94800828D02*
X122304510Y-94729400D01*
X122304510Y-94729400D02*
X122233082Y-94586542D01*
X122233082Y-94586542D02*
X122233082Y-94015114D01*
X122233082Y-94015114D02*
X122304510Y-93872257D01*
X122304510Y-93872257D02*
X122447368Y-93800828D01*
X122447368Y-93800828D02*
X122733082Y-93800828D01*
X122733082Y-93800828D02*
X122875939Y-93872257D01*
X122875939Y-93872257D02*
X122947368Y-94015114D01*
X122947368Y-94015114D02*
X122947368Y-94157971D01*
X122947368Y-94157971D02*
X122233082Y-94300828D01*
X125375939Y-93800828D02*
X125375939Y-94800828D01*
X125018796Y-93229400D02*
X124661653Y-94300828D01*
X124661653Y-94300828D02*
X125590224Y-94300828D01*
X126090224Y-93443685D02*
X126161652Y-93372257D01*
X126161652Y-93372257D02*
X126304510Y-93300828D01*
X126304510Y-93300828D02*
X126661652Y-93300828D01*
X126661652Y-93300828D02*
X126804510Y-93372257D01*
X126804510Y-93372257D02*
X126875938Y-93443685D01*
X126875938Y-93443685D02*
X126947367Y-93586542D01*
X126947367Y-93586542D02*
X126947367Y-93729400D01*
X126947367Y-93729400D02*
X126875938Y-93943685D01*
X126875938Y-93943685D02*
X126018795Y-94800828D01*
X126018795Y-94800828D02*
X126947367Y-94800828D01*
D12*
%TO.P,OUT_A1,1,Pin_1*%
%TO.N,Net-(OUT_A1-Pin_1)*%
X119500000Y-72000000D03*
%TD*%
D13*
%TO.P,U1,1*%
%TO.N,Net-(OUT_A1-Pin_1)*%
X118574118Y-57702992D03*
%TO.P,U1,2,-*%
X118574118Y-58972992D03*
%TO.P,U1,3,+*%
%TO.N,Net-(U1A-+)*%
X118574118Y-60242992D03*
%TO.P,U1,4,V+*%
%TO.N,+5V*%
X118574118Y-61512992D03*
%TO.P,U1,5,+*%
%TO.N,Net-(SENSOR1-Pin_1)*%
X118574118Y-62782992D03*
%TO.P,U1,6,-*%
%TO.N,Net-(U1B--)*%
X118574118Y-64052992D03*
%TO.P,U1,7*%
%TO.N,Net-(OUT_B1-Pin_1)*%
X118574118Y-65322992D03*
%TO.P,U1,8*%
%TO.N,A0 - STM32*%
X123524118Y-65322992D03*
%TO.P,U1,9,-*%
%TO.N,Net-(OUT_B1-Pin_1)*%
X123524118Y-64052992D03*
%TO.P,U1,10,+*%
%TO.N,Net-(U1C-+)*%
X123524118Y-62782992D03*
%TO.P,U1,11,V-*%
%TO.N,GND*%
X123524118Y-61512992D03*
%TO.P,U1,12,+*%
X123524118Y-60242992D03*
%TO.P,U1,13,-*%
%TO.N,Net-(U1D--)*%
X123524118Y-58972992D03*
%TO.P,U1,14*%
X123524118Y-57702992D03*
%TD*%
D14*
%TO.P,R4,1*%
%TO.N,Net-(OUT_B1-Pin_1)*%
X121000000Y-67087500D03*
%TO.P,R4,2*%
%TO.N,Net-(U1B--)*%
X121000000Y-68912500D03*
%TD*%
D15*
%TO.P,R1,1*%
%TO.N,+5V*%
X116113155Y-61507909D03*
%TO.P,R1,2*%
%TO.N,Net-(U1A-+)*%
X116113155Y-59682909D03*
%TD*%
D12*
%TO.P,OUT_B1,1,Pin_1*%
%TO.N,Net-(OUT_B1-Pin_1)*%
X125000000Y-68500000D03*
%TD*%
D16*
%TO.P,R5,1*%
%TO.N,Net-(SENSOR1-Pin_1)*%
X119087500Y-75500000D03*
%TO.P,R5,2*%
%TO.N,Net-(OUT_B1-Pin_1)*%
X120912500Y-75500000D03*
%TD*%
D14*
%TO.P,R7,1*%
%TO.N,Net-(U1C-+)*%
X126000000Y-63587500D03*
%TO.P,R7,2*%
%TO.N,A0 - STM32*%
X126000000Y-65412500D03*
%TD*%
D12*
%TO.P,GPIO1,1,Pin_1*%
%TO.N,A0 - STM32*%
X125250000Y-79000000D03*
%TD*%
D14*
%TO.P,R3,1*%
%TO.N,Net-(U1B--)*%
X118500000Y-67087500D03*
%TO.P,R3,2*%
%TO.N,Net-(OUT_A1-Pin_1)*%
X118500000Y-68912500D03*
%TD*%
D12*
%TO.P,SENSOR1,1,Pin_1*%
%TO.N,Net-(SENSOR1-Pin_1)*%
X117250000Y-79500000D03*
%TD*%
D15*
%TO.P,R6,1*%
%TO.N,A0 - STM32*%
X121250000Y-80662500D03*
%TO.P,R6,2*%
%TO.N,Net-(SENSOR1-Pin_1)*%
X121250000Y-78837500D03*
%TD*%
D17*
%TO.P,R2,1*%
%TO.N,Net-(U1A-+)*%
X117912500Y-55000000D03*
%TO.P,R2,2*%
%TO.N,GND*%
X116087500Y-55000000D03*
%TD*%
D14*
%TO.P,R8,1*%
%TO.N,Net-(OUT_A1-Pin_1)*%
X126000000Y-59500000D03*
%TO.P,R8,2*%
%TO.N,Net-(U1C-+)*%
X126000000Y-61325000D03*
%TD*%
D18*
%TO.P,A1,1,D1/TX*%
%TO.N,unconnected-(A1-D1{slash}TX-Pad1)*%
X128890000Y-54015000D03*
D19*
%TO.P,A1,2,D0/RX*%
%TO.N,unconnected-(A1-D0{slash}RX-Pad2)*%
X128890000Y-56555000D03*
%TO.P,A1,3,~{RESET}*%
%TO.N,unconnected-(A1-~{RESET}-Pad3)*%
X128890000Y-59095000D03*
%TO.P,A1,4,GND*%
%TO.N,GND*%
X128890000Y-61635000D03*
%TO.P,A1,5,D2*%
%TO.N,unconnected-(A1-D2-Pad5)*%
X128890000Y-64175000D03*
%TO.P,A1,6,D3*%
%TO.N,unconnected-(A1-D3-Pad6)*%
X128890000Y-66715000D03*
%TO.P,A1,7,D4*%
%TO.N,unconnected-(A1-D4-Pad7)*%
X128890000Y-69255000D03*
%TO.P,A1,8,D5*%
%TO.N,unconnected-(A1-D5-Pad8)*%
X128890000Y-71795000D03*
%TO.P,A1,9,D6*%
%TO.N,unconnected-(A1-D6-Pad9)*%
X128890000Y-74335000D03*
%TO.P,A1,10,D7*%
%TO.N,unconnected-(A1-D7-Pad10)*%
X128890000Y-76875000D03*
%TO.P,A1,11,D8*%
%TO.N,unconnected-(A1-D8-Pad11)*%
X128890000Y-79415000D03*
%TO.P,A1,12,D9*%
%TO.N,unconnected-(A1-D9-Pad12)*%
X128890000Y-81955000D03*
%TO.P,A1,13,D10*%
%TO.N,unconnected-(A1-D10-Pad13)*%
X128890000Y-84495000D03*
%TO.P,A1,14,D11*%
%TO.N,unconnected-(A1-D11-Pad14)*%
X128890000Y-87035000D03*
%TO.P,A1,15,D12*%
%TO.N,unconnected-(A1-D12-Pad15)*%
X128890000Y-89575000D03*
%TO.P,A1,16,D13*%
%TO.N,unconnected-(A1-D13-Pad16)*%
X113650000Y-89575000D03*
%TO.P,A1,17,3V3*%
%TO.N,unconnected-(A1-3V3-Pad17)*%
X113650000Y-87035000D03*
%TO.P,A1,18,AREF*%
%TO.N,unconnected-(A1-AREF-Pad18)*%
X113650000Y-84495000D03*
%TO.P,A1,19,A0*%
%TO.N,A0 - STM32*%
X113650000Y-81955000D03*
%TO.P,A1,20,A1*%
%TO.N,unconnected-(A1-A1-Pad20)*%
X113650000Y-79415000D03*
%TO.P,A1,21,A2*%
%TO.N,unconnected-(A1-A2-Pad21)*%
X113650000Y-76875000D03*
%TO.P,A1,22,A3*%
%TO.N,unconnected-(A1-A3-Pad22)*%
X113650000Y-74335000D03*
%TO.P,A1,23,A4*%
%TO.N,unconnected-(A1-A4-Pad23)*%
X113650000Y-71795000D03*
%TO.P,A1,24,A5*%
%TO.N,unconnected-(A1-A5-Pad24)*%
X113650000Y-69255000D03*
%TO.P,A1,25,A6*%
%TO.N,unconnected-(A1-A6-Pad25)*%
X113650000Y-66715000D03*
%TO.P,A1,26,A7*%
%TO.N,unconnected-(A1-A7-Pad26)*%
X113650000Y-64175000D03*
%TO.P,A1,27,+5V*%
%TO.N,+5V*%
X113650000Y-61635000D03*
%TO.P,A1,28,~{RESET}*%
%TO.N,unconnected-(A1-~{RESET}-Pad28)*%
X113650000Y-59095000D03*
%TO.P,A1,29,GND*%
%TO.N,GND*%
X113650000Y-56555000D03*
%TO.P,A1,30,VIN*%
%TO.N,unconnected-(A1-VIN-Pad30)*%
X113650000Y-54015000D03*
%TD*%
D20*
%TO.N,Net-(SENSOR1-Pin_1)*%
X116000000Y-73315685D02*
X116000000Y-64500000D01*
X118184315Y-75500000D02*
X116000000Y-73315685D01*
X119087500Y-75500000D02*
X118184315Y-75500000D01*
%TO.N,Net-(U1B--)*%
X117500000Y-74250000D02*
X121750000Y-74250000D01*
X116500000Y-73250000D02*
X117500000Y-74250000D01*
X122000000Y-69912500D02*
X121000000Y-68912500D01*
X116500000Y-65152111D02*
X116500000Y-73250000D01*
X117599119Y-64052992D02*
X116500000Y-65152111D01*
X121750000Y-74250000D02*
X122000000Y-74000000D01*
X118574118Y-64052992D02*
X117599119Y-64052992D01*
X122000000Y-74000000D02*
X122000000Y-69912500D01*
%TO.N,Net-(OUT_B1-Pin_1)*%
X121750000Y-75500000D02*
X120912500Y-75500000D01*
X122500000Y-74750000D02*
X121750000Y-75500000D01*
X122500000Y-69000000D02*
X122500000Y-74750000D01*
%TO.N,A0 - STM32*%
X125500000Y-79000000D02*
X125250000Y-79000000D01*
X127500000Y-77000000D02*
X125500000Y-79000000D01*
X127500000Y-66912500D02*
X127500000Y-77000000D01*
X126000000Y-65412500D02*
X127500000Y-66912500D01*
X122912500Y-79000000D02*
X121250000Y-80662500D01*
X125250000Y-79000000D02*
X122912500Y-79000000D01*
%TO.N,Net-(SENSOR1-Pin_1)*%
X120587500Y-79500000D02*
X121250000Y-78837500D01*
X117250000Y-79500000D02*
X120587500Y-79500000D01*
X121250000Y-77662500D02*
X119087500Y-75500000D01*
X121250000Y-78837500D02*
X121250000Y-77662500D01*
%TO.N,A0 - STM32*%
X119957500Y-81955000D02*
X121250000Y-80662500D01*
X113650000Y-81955000D02*
X119957500Y-81955000D01*
%TO.N,Net-(OUT_A1-Pin_1)*%
X120932992Y-62182992D02*
X120500000Y-61750000D01*
X126000000Y-59500000D02*
X124799118Y-60700882D01*
X124799118Y-60700882D02*
X124799118Y-61853544D01*
X120500000Y-61750000D02*
X120500000Y-64000000D01*
X124469670Y-62182992D02*
X120932992Y-62182992D01*
X120500000Y-59923875D02*
X120500000Y-61750000D01*
X124799118Y-61853544D02*
X124469670Y-62182992D01*
X118500000Y-71000000D02*
X119500000Y-72000000D01*
X118500000Y-68912500D02*
X118500000Y-71000000D01*
%TO.N,Net-(U1B--)*%
X121500000Y-69412500D02*
X121000000Y-68912500D01*
%TO.N,Net-(SENSOR1-Pin_1)*%
X117717008Y-62782992D02*
X116000000Y-64500000D01*
X118574118Y-62782992D02*
X117717008Y-62782992D01*
%TO.N,Net-(OUT_A1-Pin_1)*%
X120500000Y-64000000D02*
X119847008Y-64652992D01*
X119549117Y-58972992D02*
X120500000Y-59923875D01*
X118574118Y-58972992D02*
X119549117Y-58972992D01*
%TO.N,Net-(U1C-+)*%
X126000000Y-61325000D02*
X126000000Y-63587500D01*
X125195492Y-62782992D02*
X123524118Y-62782992D01*
X126000000Y-63587500D02*
X125195492Y-62782992D01*
%TO.N,A0 - STM32*%
X125910492Y-65322992D02*
X126000000Y-65412500D01*
X123524118Y-65322992D02*
X125910492Y-65322992D01*
%TO.N,Net-(OUT_B1-Pin_1)*%
X123000000Y-68500000D02*
X125000000Y-68500000D01*
X122500000Y-69000000D02*
X123000000Y-68500000D01*
X122500000Y-67500000D02*
X122500000Y-69000000D01*
%TO.N,Net-(U1A-+)*%
X116113155Y-56799345D02*
X117912500Y-55000000D01*
X116113155Y-59682909D02*
X116113155Y-56799345D01*
%TO.N,Net-(OUT_B1-Pin_1)*%
X122087500Y-67087500D02*
X122500000Y-67500000D01*
X121000000Y-67087500D02*
X122087500Y-67087500D01*
%TO.N,Net-(OUT_A1-Pin_1)*%
X117412500Y-68912500D02*
X117000000Y-68500000D01*
X117000000Y-68500000D02*
X117000000Y-65281558D01*
X118500000Y-68912500D02*
X117412500Y-68912500D01*
X117000000Y-65281558D02*
X117628566Y-64652992D01*
X117628566Y-64652992D02*
X119847008Y-64652992D01*
%TO.N,Net-(OUT_B1-Pin_1)*%
X121000000Y-65602111D02*
X121279119Y-65322992D01*
X121000000Y-67087500D02*
X121000000Y-65602111D01*
%TO.N,Net-(U1B--)*%
X119175000Y-67087500D02*
X121000000Y-68912500D01*
X118500000Y-67087500D02*
X119175000Y-67087500D01*
%TO.N,Net-(OUT_B1-Pin_1)*%
X122549119Y-64052992D02*
X121279119Y-65322992D01*
X121279119Y-65322992D02*
X118574118Y-65322992D01*
X123524118Y-64052992D02*
X122549119Y-64052992D01*
%TO.N,Net-(U1A-+)*%
X118574118Y-60242992D02*
X119257008Y-60242992D01*
X116673238Y-60242992D02*
X116113155Y-59682909D01*
X118574118Y-60242992D02*
X116673238Y-60242992D01*
D21*
%TO.N,+5V*%
X118569035Y-61507909D02*
X118574118Y-61512992D01*
X116113155Y-61507909D02*
X118569035Y-61507909D01*
X113650000Y-61635000D02*
X115986064Y-61635000D01*
X115986064Y-61635000D02*
X116113155Y-61507909D01*
D20*
%TO.N,Net-(OUT_A1-Pin_1)*%
X118525000Y-57690000D02*
X118525000Y-58960000D01*
D21*
%TO.N,+5V*%
X113785000Y-61500000D02*
X113650000Y-61635000D01*
D20*
%TO.N,Net-(U1D--)*%
X123475000Y-57690000D02*
X123475000Y-58960000D01*
%TO.N,A0 - STM32*%
X123500000Y-65335000D02*
X123475000Y-65310000D01*
%TD*%
%TA.AperFunction,Conductor*%
%TO.N,GND*%
G36*
X130442539Y-50020185D02*
G01*
X130488294Y-50072989D01*
X130499500Y-50124500D01*
X130499500Y-95875500D01*
X130479815Y-95942539D01*
X130427011Y-95988294D01*
X130375500Y-95999500D01*
X127728592Y-95999500D01*
X127661553Y-95979815D01*
X127615798Y-95927011D01*
X127604592Y-95875500D01*
X127604592Y-92572176D01*
X115074878Y-92572176D01*
X115074878Y-95875500D01*
X115055193Y-95942539D01*
X115002389Y-95988294D01*
X114950878Y-95999500D01*
X112124500Y-95999500D01*
X112057461Y-95979815D01*
X112011706Y-95927011D01*
X112000500Y-95875500D01*
X112000500Y-89575001D01*
X112344532Y-89575001D01*
X112364364Y-89801686D01*
X112364366Y-89801697D01*
X112423258Y-90021488D01*
X112423261Y-90021497D01*
X112519431Y-90227732D01*
X112519432Y-90227734D01*
X112649954Y-90414141D01*
X112810858Y-90575045D01*
X112810861Y-90575047D01*
X112997266Y-90705568D01*
X113203504Y-90801739D01*
X113423308Y-90860635D01*
X113585230Y-90874801D01*
X113649998Y-90880468D01*
X113650000Y-90880468D01*
X113650002Y-90880468D01*
X113706673Y-90875509D01*
X113876692Y-90860635D01*
X114096496Y-90801739D01*
X114302734Y-90705568D01*
X114489139Y-90575047D01*
X114650047Y-90414139D01*
X114780568Y-90227734D01*
X114876739Y-90021496D01*
X114935635Y-89801692D01*
X114955468Y-89575000D01*
X114935635Y-89348308D01*
X114876739Y-89128504D01*
X114780568Y-88922266D01*
X114650047Y-88735861D01*
X114650045Y-88735858D01*
X114489141Y-88574954D01*
X114302734Y-88444432D01*
X114302728Y-88444429D01*
X114244725Y-88417382D01*
X114192285Y-88371210D01*
X114173133Y-88304017D01*
X114193348Y-88237135D01*
X114244725Y-88192618D01*
X114302734Y-88165568D01*
X114489139Y-88035047D01*
X114650047Y-87874139D01*
X114780568Y-87687734D01*
X114876739Y-87481496D01*
X114935635Y-87261692D01*
X114955468Y-87035000D01*
X114935635Y-86808308D01*
X114876739Y-86588504D01*
X114780568Y-86382266D01*
X114650047Y-86195861D01*
X114650045Y-86195858D01*
X114489141Y-86034954D01*
X114302734Y-85904432D01*
X114302728Y-85904429D01*
X114244725Y-85877382D01*
X114192285Y-85831210D01*
X114173133Y-85764017D01*
X114193348Y-85697135D01*
X114244725Y-85652618D01*
X114302734Y-85625568D01*
X114489139Y-85495047D01*
X114650047Y-85334139D01*
X114780568Y-85147734D01*
X114876739Y-84941496D01*
X114935635Y-84721692D01*
X114955468Y-84495000D01*
X114935635Y-84268308D01*
X114876739Y-84048504D01*
X114780568Y-83842266D01*
X114650047Y-83655861D01*
X114650045Y-83655858D01*
X114489141Y-83494954D01*
X114302734Y-83364432D01*
X114302728Y-83364429D01*
X114244725Y-83337382D01*
X114192285Y-83291210D01*
X114173133Y-83224017D01*
X114193348Y-83157135D01*
X114244725Y-83112618D01*
X114302734Y-83085568D01*
X114489139Y-82955047D01*
X114650047Y-82794139D01*
X114780118Y-82608375D01*
X114834693Y-82564752D01*
X114881692Y-82555500D01*
X119870831Y-82555500D01*
X119870847Y-82555501D01*
X119878443Y-82555501D01*
X120036554Y-82555501D01*
X120036557Y-82555501D01*
X120189285Y-82514577D01*
X120239404Y-82485639D01*
X120326216Y-82435520D01*
X120438020Y-82323716D01*
X120438020Y-82323714D01*
X120448228Y-82313507D01*
X120448230Y-82313504D01*
X121049916Y-81711818D01*
X121111239Y-81678333D01*
X121137597Y-81675499D01*
X121750002Y-81675499D01*
X121750008Y-81675499D01*
X121852797Y-81664999D01*
X122019334Y-81609814D01*
X122168656Y-81517712D01*
X122292712Y-81393656D01*
X122384814Y-81244334D01*
X122439999Y-81077797D01*
X122450500Y-80975009D01*
X122450499Y-80362596D01*
X122470183Y-80295558D01*
X122486818Y-80274916D01*
X122804252Y-79957483D01*
X123124916Y-79636819D01*
X123186239Y-79603334D01*
X123212597Y-79600500D01*
X123775501Y-79600500D01*
X123842540Y-79620185D01*
X123888295Y-79672989D01*
X123899501Y-79724500D01*
X123899501Y-79897876D01*
X123905908Y-79957483D01*
X123956202Y-80092328D01*
X123956206Y-80092335D01*
X124042452Y-80207544D01*
X124042455Y-80207547D01*
X124157664Y-80293793D01*
X124157671Y-80293797D01*
X124292517Y-80344091D01*
X124292516Y-80344091D01*
X124299444Y-80344835D01*
X124352127Y-80350500D01*
X126147872Y-80350499D01*
X126207483Y-80344091D01*
X126342331Y-80293796D01*
X126457546Y-80207546D01*
X126543796Y-80092331D01*
X126594091Y-79957483D01*
X126600500Y-79897873D01*
X126600499Y-78800095D01*
X126620184Y-78733057D01*
X126636813Y-78712420D01*
X127680500Y-77668733D01*
X127741821Y-77635250D01*
X127811513Y-77640234D01*
X127867446Y-77682106D01*
X127869753Y-77685292D01*
X127889952Y-77714139D01*
X128050858Y-77875045D01*
X128050861Y-77875047D01*
X128237266Y-78005568D01*
X128295275Y-78032618D01*
X128347714Y-78078791D01*
X128366866Y-78145984D01*
X128346650Y-78212865D01*
X128295275Y-78257382D01*
X128237267Y-78284431D01*
X128237265Y-78284432D01*
X128050858Y-78414954D01*
X127889954Y-78575858D01*
X127759432Y-78762265D01*
X127759431Y-78762267D01*
X127663261Y-78968502D01*
X127663258Y-78968511D01*
X127604366Y-79188302D01*
X127604364Y-79188313D01*
X127584532Y-79414998D01*
X127584532Y-79415001D01*
X127604364Y-79641686D01*
X127604366Y-79641697D01*
X127663258Y-79861488D01*
X127663261Y-79861497D01*
X127759431Y-80067732D01*
X127759432Y-80067734D01*
X127889954Y-80254141D01*
X128050858Y-80415045D01*
X128050861Y-80415047D01*
X128237266Y-80545568D01*
X128295275Y-80572618D01*
X128347714Y-80618791D01*
X128366866Y-80685984D01*
X128346650Y-80752865D01*
X128295275Y-80797382D01*
X128237267Y-80824431D01*
X128237265Y-80824432D01*
X128050858Y-80954954D01*
X127889954Y-81115858D01*
X127759432Y-81302265D01*
X127759431Y-81302267D01*
X127663261Y-81508502D01*
X127663258Y-81508511D01*
X127604366Y-81728302D01*
X127604364Y-81728313D01*
X127584532Y-81954998D01*
X127584532Y-81955001D01*
X127604364Y-82181686D01*
X127604366Y-82181697D01*
X127663258Y-82401488D01*
X127663261Y-82401497D01*
X127759431Y-82607732D01*
X127759432Y-82607734D01*
X127889954Y-82794141D01*
X128050858Y-82955045D01*
X128050861Y-82955047D01*
X128237266Y-83085568D01*
X128295275Y-83112618D01*
X128347714Y-83158791D01*
X128366866Y-83225984D01*
X128346650Y-83292865D01*
X128295275Y-83337382D01*
X128237267Y-83364431D01*
X128237265Y-83364432D01*
X128050858Y-83494954D01*
X127889954Y-83655858D01*
X127759432Y-83842265D01*
X127759431Y-83842267D01*
X127663261Y-84048502D01*
X127663258Y-84048511D01*
X127604366Y-84268302D01*
X127604364Y-84268313D01*
X127584532Y-84494998D01*
X127584532Y-84495001D01*
X127604364Y-84721686D01*
X127604366Y-84721697D01*
X127663258Y-84941488D01*
X127663261Y-84941497D01*
X127759431Y-85147732D01*
X127759432Y-85147734D01*
X127889954Y-85334141D01*
X128050858Y-85495045D01*
X128050861Y-85495047D01*
X128237266Y-85625568D01*
X128295275Y-85652618D01*
X128347714Y-85698791D01*
X128366866Y-85765984D01*
X128346650Y-85832865D01*
X128295275Y-85877382D01*
X128237267Y-85904431D01*
X128237265Y-85904432D01*
X128050858Y-86034954D01*
X127889954Y-86195858D01*
X127759432Y-86382265D01*
X127759431Y-86382267D01*
X127663261Y-86588502D01*
X127663258Y-86588511D01*
X127604366Y-86808302D01*
X127604364Y-86808313D01*
X127584532Y-87034998D01*
X127584532Y-87035001D01*
X127604364Y-87261686D01*
X127604366Y-87261697D01*
X127663258Y-87481488D01*
X127663261Y-87481497D01*
X127759431Y-87687732D01*
X127759432Y-87687734D01*
X127889954Y-87874141D01*
X128050858Y-88035045D01*
X128050861Y-88035047D01*
X128237266Y-88165568D01*
X128295275Y-88192618D01*
X128347714Y-88238791D01*
X128366866Y-88305984D01*
X128346650Y-88372865D01*
X128295275Y-88417382D01*
X128237267Y-88444431D01*
X128237265Y-88444432D01*
X128050858Y-88574954D01*
X127889954Y-88735858D01*
X127759432Y-88922265D01*
X127759431Y-88922267D01*
X127663261Y-89128502D01*
X127663258Y-89128511D01*
X127604366Y-89348302D01*
X127604364Y-89348313D01*
X127584532Y-89574998D01*
X127584532Y-89575001D01*
X127604364Y-89801686D01*
X127604366Y-89801697D01*
X127663258Y-90021488D01*
X127663261Y-90021497D01*
X127759431Y-90227732D01*
X127759432Y-90227734D01*
X127889954Y-90414141D01*
X128050858Y-90575045D01*
X128050861Y-90575047D01*
X128237266Y-90705568D01*
X128443504Y-90801739D01*
X128663308Y-90860635D01*
X128825230Y-90874801D01*
X128889998Y-90880468D01*
X128890000Y-90880468D01*
X128890002Y-90880468D01*
X128946673Y-90875509D01*
X129116692Y-90860635D01*
X129336496Y-90801739D01*
X129542734Y-90705568D01*
X129729139Y-90575047D01*
X129890047Y-90414139D01*
X130020568Y-90227734D01*
X130116739Y-90021496D01*
X130175635Y-89801692D01*
X130195468Y-89575000D01*
X130175635Y-89348308D01*
X130116739Y-89128504D01*
X130020568Y-88922266D01*
X129890047Y-88735861D01*
X129890045Y-88735858D01*
X129729141Y-88574954D01*
X129542734Y-88444432D01*
X129542728Y-88444429D01*
X129484725Y-88417382D01*
X129432285Y-88371210D01*
X129413133Y-88304017D01*
X129433348Y-88237135D01*
X129484725Y-88192618D01*
X129542734Y-88165568D01*
X129729139Y-88035047D01*
X129890047Y-87874139D01*
X130020568Y-87687734D01*
X130116739Y-87481496D01*
X130175635Y-87261692D01*
X130195468Y-87035000D01*
X130175635Y-86808308D01*
X130116739Y-86588504D01*
X130020568Y-86382266D01*
X129890047Y-86195861D01*
X129890045Y-86195858D01*
X129729141Y-86034954D01*
X129542734Y-85904432D01*
X129542728Y-85904429D01*
X129484725Y-85877382D01*
X129432285Y-85831210D01*
X129413133Y-85764017D01*
X129433348Y-85697135D01*
X129484725Y-85652618D01*
X129542734Y-85625568D01*
X129729139Y-85495047D01*
X129890047Y-85334139D01*
X130020568Y-85147734D01*
X130116739Y-84941496D01*
X130175635Y-84721692D01*
X130195468Y-84495000D01*
X130175635Y-84268308D01*
X130116739Y-84048504D01*
X130020568Y-83842266D01*
X129890047Y-83655861D01*
X129890045Y-83655858D01*
X129729141Y-83494954D01*
X129542734Y-83364432D01*
X129542728Y-83364429D01*
X129484725Y-83337382D01*
X129432285Y-83291210D01*
X129413133Y-83224017D01*
X129433348Y-83157135D01*
X129484725Y-83112618D01*
X129542734Y-83085568D01*
X129729139Y-82955047D01*
X129890047Y-82794139D01*
X130020568Y-82607734D01*
X130116739Y-82401496D01*
X130175635Y-82181692D01*
X130195468Y-81955000D01*
X130175635Y-81728308D01*
X130116739Y-81508504D01*
X130020568Y-81302266D01*
X129890047Y-81115861D01*
X129890045Y-81115858D01*
X129729141Y-80954954D01*
X129542734Y-80824432D01*
X129542728Y-80824429D01*
X129484725Y-80797382D01*
X129432285Y-80751210D01*
X129413133Y-80684017D01*
X129433348Y-80617135D01*
X129484725Y-80572618D01*
X129542734Y-80545568D01*
X129729139Y-80415047D01*
X129890047Y-80254139D01*
X130020568Y-80067734D01*
X130116739Y-79861496D01*
X130175635Y-79641692D01*
X130195468Y-79415000D01*
X130175635Y-79188308D01*
X130116739Y-78968504D01*
X130020568Y-78762266D01*
X129908439Y-78602128D01*
X129890045Y-78575858D01*
X129729141Y-78414954D01*
X129542734Y-78284432D01*
X129542728Y-78284429D01*
X129484725Y-78257382D01*
X129432285Y-78211210D01*
X129413133Y-78144017D01*
X129433348Y-78077135D01*
X129484725Y-78032618D01*
X129542734Y-78005568D01*
X129729139Y-77875047D01*
X129890047Y-77714139D01*
X130020568Y-77527734D01*
X130116739Y-77321496D01*
X130175635Y-77101692D01*
X130195468Y-76875000D01*
X130175635Y-76648308D01*
X130116739Y-76428504D01*
X130020568Y-76222266D01*
X129890047Y-76035861D01*
X129890045Y-76035858D01*
X129729141Y-75874954D01*
X129542734Y-75744432D01*
X129542728Y-75744429D01*
X129484725Y-75717382D01*
X129432285Y-75671210D01*
X129413133Y-75604017D01*
X129433348Y-75537135D01*
X129484725Y-75492618D01*
X129542734Y-75465568D01*
X129729139Y-75335047D01*
X129890047Y-75174139D01*
X130020568Y-74987734D01*
X130116739Y-74781496D01*
X130175635Y-74561692D01*
X130195468Y-74335000D01*
X130175635Y-74108308D01*
X130116739Y-73888504D01*
X130020568Y-73682266D01*
X129890047Y-73495861D01*
X129890045Y-73495858D01*
X129729141Y-73334954D01*
X129542734Y-73204432D01*
X129542728Y-73204429D01*
X129484725Y-73177382D01*
X129432285Y-73131210D01*
X129413133Y-73064017D01*
X129433348Y-72997135D01*
X129484725Y-72952618D01*
X129542734Y-72925568D01*
X129729139Y-72795047D01*
X129890047Y-72634139D01*
X130020568Y-72447734D01*
X130116739Y-72241496D01*
X130175635Y-72021692D01*
X130195468Y-71795000D01*
X130175635Y-71568308D01*
X130116739Y-71348504D01*
X130020568Y-71142266D01*
X129890047Y-70955861D01*
X129890045Y-70955858D01*
X129729141Y-70794954D01*
X129542734Y-70664432D01*
X129542728Y-70664429D01*
X129484725Y-70637382D01*
X129432285Y-70591210D01*
X129413133Y-70524017D01*
X129433348Y-70457135D01*
X129484725Y-70412618D01*
X129542734Y-70385568D01*
X129729139Y-70255047D01*
X129890047Y-70094139D01*
X130020568Y-69907734D01*
X130116739Y-69701496D01*
X130175635Y-69481692D01*
X130195468Y-69255000D01*
X130193548Y-69233059D01*
X130175635Y-69028313D01*
X130175635Y-69028308D01*
X130116739Y-68808504D01*
X130020568Y-68602266D01*
X129890047Y-68415861D01*
X129890045Y-68415858D01*
X129729141Y-68254954D01*
X129542734Y-68124432D01*
X129542728Y-68124429D01*
X129484725Y-68097382D01*
X129432285Y-68051210D01*
X129413133Y-67984017D01*
X129433348Y-67917135D01*
X129484725Y-67872618D01*
X129542734Y-67845568D01*
X129729139Y-67715047D01*
X129890047Y-67554139D01*
X130020568Y-67367734D01*
X130116739Y-67161496D01*
X130175635Y-66941692D01*
X130195468Y-66715000D01*
X130175635Y-66488308D01*
X130116739Y-66268504D01*
X130020568Y-66062266D01*
X129890047Y-65875861D01*
X129890045Y-65875858D01*
X129729141Y-65714954D01*
X129542734Y-65584432D01*
X129542728Y-65584429D01*
X129515038Y-65571517D01*
X129484724Y-65557381D01*
X129432285Y-65511210D01*
X129413133Y-65444017D01*
X129433348Y-65377135D01*
X129484725Y-65332618D01*
X129542734Y-65305568D01*
X129729139Y-65175047D01*
X129890047Y-65014139D01*
X130020568Y-64827734D01*
X130116739Y-64621496D01*
X130175635Y-64401692D01*
X130195468Y-64175000D01*
X130194972Y-64169336D01*
X130181862Y-64019480D01*
X130175635Y-63948308D01*
X130116739Y-63728504D01*
X130020568Y-63522266D01*
X129894989Y-63342919D01*
X129890045Y-63335858D01*
X129729141Y-63174954D01*
X129542734Y-63044432D01*
X129542732Y-63044431D01*
X129484725Y-63017382D01*
X129484132Y-63017105D01*
X129431694Y-62970934D01*
X129412542Y-62903740D01*
X129432758Y-62836859D01*
X129484134Y-62792341D01*
X129542484Y-62765132D01*
X129728820Y-62634657D01*
X129889657Y-62473820D01*
X130020134Y-62287482D01*
X130116265Y-62081326D01*
X130116269Y-62081317D01*
X130168872Y-61885000D01*
X129323012Y-61885000D01*
X129355925Y-61827993D01*
X129390000Y-61700826D01*
X129390000Y-61569174D01*
X129355925Y-61442007D01*
X129323012Y-61385000D01*
X130168872Y-61385000D01*
X130168872Y-61384999D01*
X130116269Y-61188682D01*
X130116265Y-61188673D01*
X130020134Y-60982517D01*
X129889657Y-60796179D01*
X129728820Y-60635342D01*
X129542482Y-60504865D01*
X129484133Y-60477657D01*
X129431694Y-60431484D01*
X129412542Y-60364291D01*
X129432758Y-60297410D01*
X129484129Y-60252895D01*
X129542734Y-60225568D01*
X129729139Y-60095047D01*
X129890047Y-59934139D01*
X130020568Y-59747734D01*
X130116739Y-59541496D01*
X130175635Y-59321692D01*
X130195468Y-59095000D01*
X130175635Y-58868308D01*
X130116739Y-58648504D01*
X130020568Y-58442266D01*
X129894553Y-58262296D01*
X129890045Y-58255858D01*
X129729141Y-58094954D01*
X129542734Y-57964432D01*
X129542728Y-57964429D01*
X129484725Y-57937382D01*
X129432285Y-57891210D01*
X129413133Y-57824017D01*
X129433348Y-57757135D01*
X129484725Y-57712618D01*
X129485319Y-57712341D01*
X129542734Y-57685568D01*
X129729139Y-57555047D01*
X129890047Y-57394139D01*
X130020568Y-57207734D01*
X130116739Y-57001496D01*
X130175635Y-56781692D01*
X130195468Y-56555000D01*
X130175635Y-56328308D01*
X130116739Y-56108504D01*
X130020568Y-55902266D01*
X129890047Y-55715861D01*
X129890045Y-55715858D01*
X129729143Y-55554956D01*
X129704536Y-55537726D01*
X129660912Y-55483149D01*
X129653719Y-55413650D01*
X129685241Y-55351296D01*
X129745471Y-55315882D01*
X129762404Y-55312861D01*
X129797483Y-55309091D01*
X129932331Y-55258796D01*
X130047546Y-55172546D01*
X130133796Y-55057331D01*
X130184091Y-54922483D01*
X130190500Y-54862873D01*
X130190499Y-53167128D01*
X130184091Y-53107517D01*
X130149567Y-53014954D01*
X130133797Y-52972671D01*
X130133793Y-52972664D01*
X130047547Y-52857455D01*
X130047544Y-52857452D01*
X129932335Y-52771206D01*
X129932328Y-52771202D01*
X129797482Y-52720908D01*
X129797483Y-52720908D01*
X129737883Y-52714501D01*
X129737881Y-52714500D01*
X129737873Y-52714500D01*
X129737864Y-52714500D01*
X128042129Y-52714500D01*
X128042123Y-52714501D01*
X127982516Y-52720908D01*
X127847671Y-52771202D01*
X127847664Y-52771206D01*
X127732455Y-52857452D01*
X127732452Y-52857455D01*
X127646206Y-52972664D01*
X127646202Y-52972671D01*
X127595908Y-53107517D01*
X127589501Y-53167116D01*
X127589501Y-53167123D01*
X127589500Y-53167135D01*
X127589500Y-54862870D01*
X127589501Y-54862876D01*
X127595908Y-54922483D01*
X127646202Y-55057328D01*
X127646206Y-55057335D01*
X127732452Y-55172544D01*
X127732455Y-55172547D01*
X127847664Y-55258793D01*
X127847671Y-55258797D01*
X127892618Y-55275561D01*
X127982517Y-55309091D01*
X128017596Y-55312862D01*
X128082144Y-55339599D01*
X128121993Y-55396991D01*
X128124488Y-55466816D01*
X128088836Y-55526905D01*
X128075464Y-55537725D01*
X128050858Y-55554954D01*
X127889954Y-55715858D01*
X127759432Y-55902265D01*
X127759431Y-55902267D01*
X127663261Y-56108502D01*
X127663258Y-56108511D01*
X127604366Y-56328302D01*
X127604364Y-56328313D01*
X127584532Y-56554998D01*
X127584532Y-56555001D01*
X127604364Y-56781686D01*
X127604366Y-56781697D01*
X127663258Y-57001488D01*
X127663261Y-57001497D01*
X127759431Y-57207732D01*
X127759432Y-57207734D01*
X127889954Y-57394141D01*
X128050858Y-57555045D01*
X128050861Y-57555047D01*
X128237266Y-57685568D01*
X128294681Y-57712341D01*
X128295275Y-57712618D01*
X128347714Y-57758791D01*
X128366866Y-57825984D01*
X128346650Y-57892865D01*
X128295275Y-57937382D01*
X128237267Y-57964431D01*
X128237265Y-57964432D01*
X128050858Y-58094954D01*
X127889954Y-58255858D01*
X127759432Y-58442265D01*
X127759431Y-58442267D01*
X127663261Y-58648502D01*
X127663258Y-58648511D01*
X127604366Y-58868302D01*
X127604364Y-58868313D01*
X127584532Y-59094998D01*
X127584532Y-59095001D01*
X127604364Y-59321686D01*
X127604366Y-59321697D01*
X127663258Y-59541488D01*
X127663261Y-59541497D01*
X127759431Y-59747732D01*
X127759432Y-59747734D01*
X127889954Y-59934141D01*
X128050858Y-60095045D01*
X128055375Y-60098208D01*
X128237266Y-60225568D01*
X128295865Y-60252893D01*
X128348305Y-60299065D01*
X128367457Y-60366258D01*
X128347242Y-60433139D01*
X128295867Y-60477657D01*
X128237515Y-60504867D01*
X128051179Y-60635342D01*
X127890342Y-60796179D01*
X127759865Y-60982517D01*
X127663734Y-61188673D01*
X127663730Y-61188682D01*
X127611127Y-61384999D01*
X127611128Y-61385000D01*
X128456988Y-61385000D01*
X128424075Y-61442007D01*
X128390000Y-61569174D01*
X128390000Y-61700826D01*
X128424075Y-61827993D01*
X128456988Y-61885000D01*
X127611128Y-61885000D01*
X127663730Y-62081317D01*
X127663734Y-62081326D01*
X127759865Y-62287482D01*
X127890342Y-62473820D01*
X128051179Y-62634657D01*
X128237518Y-62765134D01*
X128237520Y-62765135D01*
X128295865Y-62792342D01*
X128348305Y-62838514D01*
X128367457Y-62905707D01*
X128347242Y-62972589D01*
X128295867Y-63017105D01*
X128237268Y-63044431D01*
X128237264Y-63044433D01*
X128050858Y-63174954D01*
X127889954Y-63335858D01*
X127759432Y-63522265D01*
X127759431Y-63522267D01*
X127663261Y-63728502D01*
X127663258Y-63728511D01*
X127604366Y-63948302D01*
X127604364Y-63948313D01*
X127584532Y-64174998D01*
X127584532Y-64175001D01*
X127604364Y-64401686D01*
X127604366Y-64401697D01*
X127663258Y-64621488D01*
X127663261Y-64621497D01*
X127759431Y-64827732D01*
X127759432Y-64827734D01*
X127889954Y-65014141D01*
X128050858Y-65175045D01*
X128050861Y-65175047D01*
X128237266Y-65305568D01*
X128295275Y-65332618D01*
X128347714Y-65378791D01*
X128366866Y-65445984D01*
X128346650Y-65512865D01*
X128295275Y-65557381D01*
X128278272Y-65565310D01*
X128237267Y-65584431D01*
X128237265Y-65584432D01*
X128050858Y-65714954D01*
X127889954Y-65875858D01*
X127759430Y-66062268D01*
X127759427Y-66062273D01*
X127751451Y-66079379D01*
X127705278Y-66131818D01*
X127638085Y-66150969D01*
X127571204Y-66130752D01*
X127551389Y-66114654D01*
X127236818Y-65800083D01*
X127203333Y-65738760D01*
X127200499Y-65712411D01*
X127200499Y-65099992D01*
X127189999Y-64997203D01*
X127134814Y-64830666D01*
X127042712Y-64681344D01*
X126949049Y-64587681D01*
X126915564Y-64526358D01*
X126920548Y-64456666D01*
X126949049Y-64412319D01*
X126992659Y-64368709D01*
X127042712Y-64318656D01*
X127134814Y-64169334D01*
X127189999Y-64002797D01*
X127200500Y-63900009D01*
X127200499Y-63274992D01*
X127189999Y-63172203D01*
X127134814Y-63005666D01*
X127042712Y-62856344D01*
X126918656Y-62732288D01*
X126769334Y-62640186D01*
X126685495Y-62612404D01*
X126628051Y-62572632D01*
X126601228Y-62508116D01*
X126600500Y-62494699D01*
X126600500Y-62417800D01*
X126620185Y-62350761D01*
X126672989Y-62305006D01*
X126685482Y-62300099D01*
X126769334Y-62272314D01*
X126918656Y-62180212D01*
X127042712Y-62056156D01*
X127134814Y-61906834D01*
X127189999Y-61740297D01*
X127200500Y-61637509D01*
X127200499Y-61012492D01*
X127197411Y-60982267D01*
X127189999Y-60909703D01*
X127189998Y-60909700D01*
X127170757Y-60851634D01*
X127134814Y-60743166D01*
X127042712Y-60593844D01*
X126949049Y-60500181D01*
X126915564Y-60438858D01*
X126920548Y-60369166D01*
X126949049Y-60324819D01*
X126976733Y-60297135D01*
X127042712Y-60231156D01*
X127134814Y-60081834D01*
X127189999Y-59915297D01*
X127200500Y-59812509D01*
X127200499Y-59187492D01*
X127189999Y-59084703D01*
X127134814Y-58918166D01*
X127042712Y-58768844D01*
X126918656Y-58644788D01*
X126814892Y-58580786D01*
X126769336Y-58552687D01*
X126769331Y-58552685D01*
X126767862Y-58552198D01*
X126602797Y-58497501D01*
X126602795Y-58497500D01*
X126500010Y-58487000D01*
X125499998Y-58487000D01*
X125499980Y-58487001D01*
X125397203Y-58497500D01*
X125397200Y-58497501D01*
X125230668Y-58552685D01*
X125230663Y-58552687D01*
X125185108Y-58580786D01*
X125128405Y-58615760D01*
X125061014Y-58634200D01*
X124994351Y-58613277D01*
X124956722Y-58568191D01*
X124954833Y-58569309D01*
X124950856Y-58562585D01*
X124867199Y-58421127D01*
X124867196Y-58421124D01*
X124862416Y-58414961D01*
X124864868Y-58413058D01*
X124838273Y-58364413D01*
X124843222Y-58294718D01*
X124864058Y-58262296D01*
X124862416Y-58261023D01*
X124867193Y-58254862D01*
X124867199Y-58254857D01*
X124950862Y-58113390D01*
X124984623Y-57997183D01*
X124996715Y-57955565D01*
X124996716Y-57955559D01*
X124999618Y-57918686D01*
X124999618Y-57487298D01*
X124996716Y-57450423D01*
X124980364Y-57394141D01*
X124950863Y-57292598D01*
X124950862Y-57292595D01*
X124950862Y-57292594D01*
X124867199Y-57151127D01*
X124867197Y-57151125D01*
X124867194Y-57151121D01*
X124750988Y-57034915D01*
X124750980Y-57034909D01*
X124672799Y-56988673D01*
X124609516Y-56951248D01*
X124609515Y-56951247D01*
X124609514Y-56951247D01*
X124609511Y-56951246D01*
X124451691Y-56905394D01*
X124451685Y-56905393D01*
X124414819Y-56902492D01*
X124414812Y-56902492D01*
X122633424Y-56902492D01*
X122633416Y-56902492D01*
X122596550Y-56905393D01*
X122596544Y-56905394D01*
X122438724Y-56951246D01*
X122438721Y-56951247D01*
X122297255Y-57034909D01*
X122297247Y-57034915D01*
X122181041Y-57151121D01*
X122181035Y-57151129D01*
X122097373Y-57292595D01*
X122097372Y-57292598D01*
X122051520Y-57450418D01*
X122051519Y-57450424D01*
X122048618Y-57487290D01*
X122048618Y-57918693D01*
X122051519Y-57955559D01*
X122051520Y-57955565D01*
X122097372Y-58113385D01*
X122097373Y-58113388D01*
X122181035Y-58254854D01*
X122185820Y-58261023D01*
X122183374Y-58262919D01*
X122209975Y-58311634D01*
X122204991Y-58381326D01*
X122184187Y-58413695D01*
X122185820Y-58414961D01*
X122181035Y-58421129D01*
X122097373Y-58562595D01*
X122097372Y-58562598D01*
X122051520Y-58720418D01*
X122051519Y-58720424D01*
X122048618Y-58757290D01*
X122048618Y-59188693D01*
X122051519Y-59225559D01*
X122051520Y-59225565D01*
X122097372Y-59383385D01*
X122097373Y-59383388D01*
X122181035Y-59524854D01*
X122185820Y-59531023D01*
X122183487Y-59532832D01*
X122210328Y-59581987D01*
X122205344Y-59651679D01*
X122184588Y-59684013D01*
X122186215Y-59685275D01*
X122181431Y-59691441D01*
X122097836Y-59832793D01*
X122052017Y-59990505D01*
X122051822Y-59992990D01*
X122051823Y-59992992D01*
X123650118Y-59992992D01*
X123717157Y-60012677D01*
X123762912Y-60065481D01*
X123774118Y-60116992D01*
X123774118Y-61458492D01*
X123754433Y-61525531D01*
X123701629Y-61571286D01*
X123650118Y-61582492D01*
X121233089Y-61582492D01*
X121166050Y-61562807D01*
X121145408Y-61546173D01*
X121136819Y-61537584D01*
X121103334Y-61476261D01*
X121100500Y-61449903D01*
X121100500Y-61262990D01*
X122051822Y-61262990D01*
X122051823Y-61262992D01*
X123274118Y-61262992D01*
X123274118Y-60492992D01*
X122051823Y-60492992D01*
X122051822Y-60492993D01*
X122052017Y-60495478D01*
X122097836Y-60653190D01*
X122181432Y-60794544D01*
X122186218Y-60800714D01*
X122183871Y-60802534D01*
X122210682Y-60851634D01*
X122205698Y-60921326D01*
X122184659Y-60954061D01*
X122186218Y-60955270D01*
X122181432Y-60961439D01*
X122097836Y-61102793D01*
X122052017Y-61260505D01*
X122051822Y-61262990D01*
X121100500Y-61262990D01*
X121100500Y-60012935D01*
X121100501Y-60012922D01*
X121100501Y-59844819D01*
X121096645Y-59830429D01*
X121059577Y-59692091D01*
X121054913Y-59684013D01*
X120980524Y-59555165D01*
X120980518Y-59555157D01*
X120036707Y-58611347D01*
X120036705Y-58611344D01*
X120027434Y-58602073D01*
X120005073Y-58569167D01*
X120004834Y-58569309D01*
X120002578Y-58565495D01*
X120001307Y-58563624D01*
X120000863Y-58562598D01*
X120000862Y-58562594D01*
X119995002Y-58552686D01*
X119917201Y-58421130D01*
X119912416Y-58414961D01*
X119914868Y-58413058D01*
X119888273Y-58364413D01*
X119893222Y-58294718D01*
X119914058Y-58262296D01*
X119912416Y-58261023D01*
X119917193Y-58254862D01*
X119917199Y-58254857D01*
X120000862Y-58113390D01*
X120034623Y-57997183D01*
X120046715Y-57955565D01*
X120046716Y-57955559D01*
X120049618Y-57918686D01*
X120049618Y-57487298D01*
X120046716Y-57450423D01*
X120030364Y-57394141D01*
X120000863Y-57292598D01*
X120000862Y-57292595D01*
X120000862Y-57292594D01*
X119917199Y-57151127D01*
X119917197Y-57151125D01*
X119917194Y-57151121D01*
X119800988Y-57034915D01*
X119800980Y-57034909D01*
X119722799Y-56988673D01*
X119659516Y-56951248D01*
X119659515Y-56951247D01*
X119659514Y-56951247D01*
X119659511Y-56951246D01*
X119501691Y-56905394D01*
X119501685Y-56905393D01*
X119464819Y-56902492D01*
X119464812Y-56902492D01*
X117683424Y-56902492D01*
X117683416Y-56902492D01*
X117646550Y-56905393D01*
X117646544Y-56905394D01*
X117488724Y-56951246D01*
X117488721Y-56951247D01*
X117347255Y-57034909D01*
X117347247Y-57034915D01*
X117231041Y-57151121D01*
X117231035Y-57151129D01*
X117147373Y-57292595D01*
X117147372Y-57292598D01*
X117101520Y-57450418D01*
X117101519Y-57450424D01*
X117098618Y-57487290D01*
X117098618Y-57918693D01*
X117101519Y-57955559D01*
X117101520Y-57955565D01*
X117147372Y-58113385D01*
X117147373Y-58113388D01*
X117231035Y-58254854D01*
X117235820Y-58261023D01*
X117233374Y-58262919D01*
X117259975Y-58311634D01*
X117254991Y-58381326D01*
X117234187Y-58413695D01*
X117235820Y-58414961D01*
X117231035Y-58421129D01*
X117147373Y-58562595D01*
X117147371Y-58562598D01*
X117109963Y-58691359D01*
X117072357Y-58750245D01*
X117008884Y-58779451D01*
X116939697Y-58769705D01*
X116925791Y-58762303D01*
X116882495Y-58735599D01*
X116882489Y-58735595D01*
X116798650Y-58707813D01*
X116741206Y-58668041D01*
X116714383Y-58603525D01*
X116713655Y-58590108D01*
X116713655Y-57099441D01*
X116733340Y-57032402D01*
X116749970Y-57011764D01*
X117524917Y-56236816D01*
X117586238Y-56203333D01*
X117612586Y-56200499D01*
X118225008Y-56200499D01*
X118225016Y-56200498D01*
X118225019Y-56200498D01*
X118281302Y-56194748D01*
X118327797Y-56189999D01*
X118494334Y-56134814D01*
X118643656Y-56042712D01*
X118767712Y-55918656D01*
X118859814Y-55769334D01*
X118914999Y-55602797D01*
X118925500Y-55500009D01*
X118925499Y-54499992D01*
X118924669Y-54491870D01*
X118914999Y-54397203D01*
X118914998Y-54397200D01*
X118863469Y-54241697D01*
X118859814Y-54230666D01*
X118767712Y-54081344D01*
X118643656Y-53957288D01*
X118494334Y-53865186D01*
X118327797Y-53810001D01*
X118327795Y-53810000D01*
X118225010Y-53799500D01*
X117599998Y-53799500D01*
X117599980Y-53799501D01*
X117497203Y-53810000D01*
X117497200Y-53810001D01*
X117330668Y-53865185D01*
X117330663Y-53865187D01*
X117181345Y-53957287D01*
X117087327Y-54051305D01*
X117026003Y-54084789D01*
X116956312Y-54079805D01*
X116911965Y-54051304D01*
X116818345Y-53957684D01*
X116669124Y-53865643D01*
X116669119Y-53865641D01*
X116502697Y-53810494D01*
X116502690Y-53810493D01*
X116399986Y-53800000D01*
X116337500Y-53800000D01*
X116337500Y-55126000D01*
X116317815Y-55193039D01*
X116265011Y-55238794D01*
X116213500Y-55250000D01*
X115075001Y-55250000D01*
X115075001Y-55499986D01*
X115085494Y-55602697D01*
X115140641Y-55769119D01*
X115140643Y-55769124D01*
X115232684Y-55918345D01*
X115356654Y-56042315D01*
X115505875Y-56134356D01*
X115505880Y-56134358D01*
X115632788Y-56176411D01*
X115690233Y-56216183D01*
X115717056Y-56280699D01*
X115704741Y-56349475D01*
X115681466Y-56381797D01*
X115632636Y-56430627D01*
X115632634Y-56430630D01*
X115582516Y-56517439D01*
X115582514Y-56517441D01*
X115553580Y-56567554D01*
X115553579Y-56567555D01*
X115553578Y-56567560D01*
X115512654Y-56720288D01*
X115512654Y-56720290D01*
X115512654Y-56888391D01*
X115512655Y-56888404D01*
X115512655Y-58590108D01*
X115492970Y-58657147D01*
X115440166Y-58702902D01*
X115427662Y-58707812D01*
X115395117Y-58718597D01*
X115343823Y-58735594D01*
X115343818Y-58735596D01*
X115194500Y-58827696D01*
X115133625Y-58888571D01*
X115072301Y-58922055D01*
X115002610Y-58917070D01*
X114946676Y-58875199D01*
X114926169Y-58832982D01*
X114909214Y-58769705D01*
X114876739Y-58648504D01*
X114780568Y-58442266D01*
X114654553Y-58262296D01*
X114650045Y-58255858D01*
X114489141Y-58094954D01*
X114302734Y-57964432D01*
X114302732Y-57964431D01*
X114244725Y-57937382D01*
X114244132Y-57937105D01*
X114191694Y-57890934D01*
X114172542Y-57823740D01*
X114192758Y-57756859D01*
X114244134Y-57712341D01*
X114302484Y-57685132D01*
X114488820Y-57554657D01*
X114649657Y-57393820D01*
X114780134Y-57207482D01*
X114876265Y-57001326D01*
X114876269Y-57001317D01*
X114928872Y-56805000D01*
X114083012Y-56805000D01*
X114115925Y-56747993D01*
X114150000Y-56620826D01*
X114150000Y-56489174D01*
X114115925Y-56362007D01*
X114083012Y-56305000D01*
X114928872Y-56305000D01*
X114928872Y-56304999D01*
X114876269Y-56108682D01*
X114876265Y-56108673D01*
X114780134Y-55902517D01*
X114649657Y-55716179D01*
X114488820Y-55555342D01*
X114302482Y-55424865D01*
X114244133Y-55397657D01*
X114191694Y-55351484D01*
X114172542Y-55284291D01*
X114192758Y-55217410D01*
X114244129Y-55172895D01*
X114302734Y-55145568D01*
X114489139Y-55015047D01*
X114650047Y-54854139D01*
X114780568Y-54667734D01*
X114838619Y-54543243D01*
X114884790Y-54490806D01*
X114951984Y-54471654D01*
X115018865Y-54491870D01*
X115064200Y-54545035D01*
X115075000Y-54595650D01*
X115075000Y-54750000D01*
X115837500Y-54750000D01*
X115837500Y-53800000D01*
X115837499Y-53799999D01*
X115775028Y-53800000D01*
X115775011Y-53800001D01*
X115672302Y-53810494D01*
X115505880Y-53865641D01*
X115505875Y-53865643D01*
X115356654Y-53957684D01*
X115232682Y-54081656D01*
X115177518Y-54171091D01*
X115125570Y-54217815D01*
X115056607Y-54229036D01*
X114992525Y-54201192D01*
X114953670Y-54143123D01*
X114948452Y-54095188D01*
X114955468Y-54015000D01*
X114950453Y-53957684D01*
X114937533Y-53810001D01*
X114935635Y-53788308D01*
X114876739Y-53568504D01*
X114780568Y-53362266D01*
X114650047Y-53175861D01*
X114650045Y-53175858D01*
X114489141Y-53014954D01*
X114302734Y-52884432D01*
X114302732Y-52884431D01*
X114096497Y-52788261D01*
X114096488Y-52788258D01*
X113876697Y-52729366D01*
X113876693Y-52729365D01*
X113876692Y-52729365D01*
X113876691Y-52729364D01*
X113876686Y-52729364D01*
X113650002Y-52709532D01*
X113649998Y-52709532D01*
X113423313Y-52729364D01*
X113423302Y-52729366D01*
X113203511Y-52788258D01*
X113203502Y-52788261D01*
X112997267Y-52884431D01*
X112997265Y-52884432D01*
X112810858Y-53014954D01*
X112649954Y-53175858D01*
X112519432Y-53362265D01*
X112519431Y-53362267D01*
X112423261Y-53568502D01*
X112423258Y-53568511D01*
X112364366Y-53788302D01*
X112364364Y-53788313D01*
X112344532Y-54014998D01*
X112344532Y-54015001D01*
X112364364Y-54241686D01*
X112364366Y-54241697D01*
X112423258Y-54461488D01*
X112423261Y-54461497D01*
X112519431Y-54667732D01*
X112519432Y-54667734D01*
X112649954Y-54854141D01*
X112810858Y-55015045D01*
X112810861Y-55015047D01*
X112997266Y-55145568D01*
X113055865Y-55172893D01*
X113108305Y-55219065D01*
X113127457Y-55286258D01*
X113107242Y-55353139D01*
X113055867Y-55397657D01*
X112997515Y-55424867D01*
X112811179Y-55555342D01*
X112650342Y-55716179D01*
X112519865Y-55902517D01*
X112423734Y-56108673D01*
X112423730Y-56108682D01*
X112371127Y-56304999D01*
X112371128Y-56305000D01*
X113216988Y-56305000D01*
X113184075Y-56362007D01*
X113150000Y-56489174D01*
X113150000Y-56620826D01*
X113184075Y-56747993D01*
X113216988Y-56805000D01*
X112371128Y-56805000D01*
X112423730Y-57001317D01*
X112423734Y-57001326D01*
X112519865Y-57207482D01*
X112650342Y-57393820D01*
X112811179Y-57554657D01*
X112997518Y-57685134D01*
X112997520Y-57685135D01*
X113055865Y-57712342D01*
X113108305Y-57758514D01*
X113127457Y-57825707D01*
X113107242Y-57892589D01*
X113055867Y-57937105D01*
X112997268Y-57964431D01*
X112997264Y-57964433D01*
X112810858Y-58094954D01*
X112649954Y-58255858D01*
X112519432Y-58442265D01*
X112519431Y-58442267D01*
X112423261Y-58648502D01*
X112423258Y-58648511D01*
X112364366Y-58868302D01*
X112364364Y-58868313D01*
X112344532Y-59094998D01*
X112344532Y-59095001D01*
X112364364Y-59321686D01*
X112364366Y-59321697D01*
X112423258Y-59541488D01*
X112423261Y-59541497D01*
X112519431Y-59747732D01*
X112519432Y-59747734D01*
X112649954Y-59934141D01*
X112810858Y-60095045D01*
X112815375Y-60098208D01*
X112997266Y-60225568D01*
X113009252Y-60231157D01*
X113055275Y-60252618D01*
X113107714Y-60298791D01*
X113126866Y-60365984D01*
X113106650Y-60432865D01*
X113055275Y-60477382D01*
X112997267Y-60504431D01*
X112997265Y-60504432D01*
X112810858Y-60634954D01*
X112649954Y-60795858D01*
X112519432Y-60982265D01*
X112519431Y-60982267D01*
X112423261Y-61188502D01*
X112423258Y-61188511D01*
X112364366Y-61408302D01*
X112364364Y-61408313D01*
X112344532Y-61634998D01*
X112344532Y-61635001D01*
X112364364Y-61861686D01*
X112364366Y-61861697D01*
X112423258Y-62081488D01*
X112423261Y-62081497D01*
X112519431Y-62287732D01*
X112519432Y-62287734D01*
X112649954Y-62474141D01*
X112810858Y-62635045D01*
X112810861Y-62635047D01*
X112997266Y-62765568D01*
X113054681Y-62792341D01*
X113055275Y-62792618D01*
X113107714Y-62838791D01*
X113126866Y-62905984D01*
X113106650Y-62972865D01*
X113055275Y-63017382D01*
X112997267Y-63044431D01*
X112997265Y-63044432D01*
X112810858Y-63174954D01*
X112649954Y-63335858D01*
X112519432Y-63522265D01*
X112519431Y-63522267D01*
X112423261Y-63728502D01*
X112423258Y-63728511D01*
X112364366Y-63948302D01*
X112364364Y-63948313D01*
X112344532Y-64174998D01*
X112344532Y-64175001D01*
X112364364Y-64401686D01*
X112364366Y-64401697D01*
X112423258Y-64621488D01*
X112423261Y-64621497D01*
X112519431Y-64827732D01*
X112519432Y-64827734D01*
X112649954Y-65014141D01*
X112810858Y-65175045D01*
X112810861Y-65175047D01*
X112997266Y-65305568D01*
X113055275Y-65332618D01*
X113107714Y-65378791D01*
X113126866Y-65445984D01*
X113106650Y-65512865D01*
X113055275Y-65557381D01*
X113038272Y-65565310D01*
X112997267Y-65584431D01*
X112997265Y-65584432D01*
X112810858Y-65714954D01*
X112649954Y-65875858D01*
X112519432Y-66062265D01*
X112519431Y-66062267D01*
X112423261Y-66268502D01*
X112423258Y-66268511D01*
X112364366Y-66488302D01*
X112364364Y-66488313D01*
X112344532Y-66714998D01*
X112344532Y-66715001D01*
X112364364Y-66941686D01*
X112364366Y-66941697D01*
X112423258Y-67161488D01*
X112423261Y-67161497D01*
X112519431Y-67367732D01*
X112519432Y-67367734D01*
X112649954Y-67554141D01*
X112810858Y-67715045D01*
X112810861Y-67715047D01*
X112997266Y-67845568D01*
X113055275Y-67872618D01*
X113107714Y-67918791D01*
X113126866Y-67985984D01*
X113106650Y-68052865D01*
X113055275Y-68097382D01*
X112997267Y-68124431D01*
X112997265Y-68124432D01*
X112810858Y-68254954D01*
X112649954Y-68415858D01*
X112519432Y-68602265D01*
X112519431Y-68602267D01*
X112423261Y-68808502D01*
X112423258Y-68808511D01*
X112364366Y-69028302D01*
X112364364Y-69028313D01*
X112344532Y-69254998D01*
X112344532Y-69255001D01*
X112364364Y-69481686D01*
X112364366Y-69481697D01*
X112423258Y-69701488D01*
X112423261Y-69701497D01*
X112519431Y-69907732D01*
X112519432Y-69907734D01*
X112649954Y-70094141D01*
X112810858Y-70255045D01*
X112810861Y-70255047D01*
X112997266Y-70385568D01*
X113055275Y-70412618D01*
X113107714Y-70458791D01*
X113126866Y-70525984D01*
X113106650Y-70592865D01*
X113055275Y-70637382D01*
X112997267Y-70664431D01*
X112997265Y-70664432D01*
X112810858Y-70794954D01*
X112649954Y-70955858D01*
X112519432Y-71142265D01*
X112519431Y-71142267D01*
X112423261Y-71348502D01*
X112423258Y-71348511D01*
X112364366Y-71568302D01*
X112364364Y-71568313D01*
X112344532Y-71794998D01*
X112344532Y-71795001D01*
X112364364Y-72021686D01*
X112364366Y-72021697D01*
X112423258Y-72241488D01*
X112423261Y-72241497D01*
X112519431Y-72447732D01*
X112519432Y-72447734D01*
X112649954Y-72634141D01*
X112810858Y-72795045D01*
X112810861Y-72795047D01*
X112997266Y-72925568D01*
X113055275Y-72952618D01*
X113107714Y-72998791D01*
X113126866Y-73065984D01*
X113106650Y-73132865D01*
X113055275Y-73177382D01*
X112997267Y-73204431D01*
X112997265Y-73204432D01*
X112810858Y-73334954D01*
X112649954Y-73495858D01*
X112519432Y-73682265D01*
X112519431Y-73682267D01*
X112423261Y-73888502D01*
X112423258Y-73888511D01*
X112364366Y-74108302D01*
X112364364Y-74108313D01*
X112344532Y-74334998D01*
X112344532Y-74335001D01*
X112364364Y-74561686D01*
X112364366Y-74561697D01*
X112423258Y-74781488D01*
X112423261Y-74781497D01*
X112519431Y-74987732D01*
X112519432Y-74987734D01*
X112649954Y-75174141D01*
X112810858Y-75335045D01*
X112810861Y-75335047D01*
X112997266Y-75465568D01*
X113055275Y-75492618D01*
X113107714Y-75538791D01*
X113126866Y-75605984D01*
X113106650Y-75672865D01*
X113055275Y-75717382D01*
X112997267Y-75744431D01*
X112997265Y-75744432D01*
X112810858Y-75874954D01*
X112649954Y-76035858D01*
X112519432Y-76222265D01*
X112519431Y-76222267D01*
X112423261Y-76428502D01*
X112423258Y-76428511D01*
X112364366Y-76648302D01*
X112364364Y-76648313D01*
X112344532Y-76874998D01*
X112344532Y-76875001D01*
X112364364Y-77101686D01*
X112364366Y-77101697D01*
X112423258Y-77321488D01*
X112423261Y-77321497D01*
X112519431Y-77527732D01*
X112519432Y-77527734D01*
X112649954Y-77714141D01*
X112810858Y-77875045D01*
X112810861Y-77875047D01*
X112997266Y-78005568D01*
X113055275Y-78032618D01*
X113107714Y-78078791D01*
X113126866Y-78145984D01*
X113106650Y-78212865D01*
X113055275Y-78257382D01*
X112997267Y-78284431D01*
X112997265Y-78284432D01*
X112810858Y-78414954D01*
X112649954Y-78575858D01*
X112519432Y-78762265D01*
X112519431Y-78762267D01*
X112423261Y-78968502D01*
X112423258Y-78968511D01*
X112364366Y-79188302D01*
X112364364Y-79188313D01*
X112344532Y-79414998D01*
X112344532Y-79415001D01*
X112364364Y-79641686D01*
X112364366Y-79641697D01*
X112423258Y-79861488D01*
X112423261Y-79861497D01*
X112519431Y-80067732D01*
X112519432Y-80067734D01*
X112649954Y-80254141D01*
X112810858Y-80415045D01*
X112810861Y-80415047D01*
X112997266Y-80545568D01*
X113055275Y-80572618D01*
X113107714Y-80618791D01*
X113126866Y-80685984D01*
X113106650Y-80752865D01*
X113055275Y-80797382D01*
X112997267Y-80824431D01*
X112997265Y-80824432D01*
X112810858Y-80954954D01*
X112649954Y-81115858D01*
X112519432Y-81302265D01*
X112519431Y-81302267D01*
X112423261Y-81508502D01*
X112423258Y-81508511D01*
X112364366Y-81728302D01*
X112364364Y-81728313D01*
X112344532Y-81954998D01*
X112344532Y-81955001D01*
X112364364Y-82181686D01*
X112364366Y-82181697D01*
X112423258Y-82401488D01*
X112423261Y-82401497D01*
X112519431Y-82607732D01*
X112519432Y-82607734D01*
X112649954Y-82794141D01*
X112810858Y-82955045D01*
X112810861Y-82955047D01*
X112997266Y-83085568D01*
X113055275Y-83112618D01*
X113107714Y-83158791D01*
X113126866Y-83225984D01*
X113106650Y-83292865D01*
X113055275Y-83337382D01*
X112997267Y-83364431D01*
X112997265Y-83364432D01*
X112810858Y-83494954D01*
X112649954Y-83655858D01*
X112519432Y-83842265D01*
X112519431Y-83842267D01*
X112423261Y-84048502D01*
X112423258Y-84048511D01*
X112364366Y-84268302D01*
X112364364Y-84268313D01*
X112344532Y-84494998D01*
X112344532Y-84495001D01*
X112364364Y-84721686D01*
X112364366Y-84721697D01*
X112423258Y-84941488D01*
X112423261Y-84941497D01*
X112519431Y-85147732D01*
X112519432Y-85147734D01*
X112649954Y-85334141D01*
X112810858Y-85495045D01*
X112810861Y-85495047D01*
X112997266Y-85625568D01*
X113055275Y-85652618D01*
X113107714Y-85698791D01*
X113126866Y-85765984D01*
X113106650Y-85832865D01*
X113055275Y-85877382D01*
X112997267Y-85904431D01*
X112997265Y-85904432D01*
X112810858Y-86034954D01*
X112649954Y-86195858D01*
X112519432Y-86382265D01*
X112519431Y-86382267D01*
X112423261Y-86588502D01*
X112423258Y-86588511D01*
X112364366Y-86808302D01*
X112364364Y-86808313D01*
X112344532Y-87034998D01*
X112344532Y-87035001D01*
X112364364Y-87261686D01*
X112364366Y-87261697D01*
X112423258Y-87481488D01*
X112423261Y-87481497D01*
X112519431Y-87687732D01*
X112519432Y-87687734D01*
X112649954Y-87874141D01*
X112810858Y-88035045D01*
X112810861Y-88035047D01*
X112997266Y-88165568D01*
X113055275Y-88192618D01*
X113107714Y-88238791D01*
X113126866Y-88305984D01*
X113106650Y-88372865D01*
X113055275Y-88417382D01*
X112997267Y-88444431D01*
X112997265Y-88444432D01*
X112810858Y-88574954D01*
X112649954Y-88735858D01*
X112519432Y-88922265D01*
X112519431Y-88922267D01*
X112423261Y-89128502D01*
X112423258Y-89128511D01*
X112364366Y-89348302D01*
X112364364Y-89348313D01*
X112344532Y-89574998D01*
X112344532Y-89575001D01*
X112000500Y-89575001D01*
X112000500Y-50124500D01*
X112020185Y-50057461D01*
X112072989Y-50011706D01*
X112124500Y-50000500D01*
X130375500Y-50000500D01*
X130442539Y-50020185D01*
G37*
%TD.AperFunction*%
%TD*%
M02*
