%TF.GenerationSoftware,KiCad,Pcbnew,8.0.1*%
%TF.CreationDate,2024-04-11T09:01:25+02:00*%
%TF.ProjectId,ConditionneurV2,436f6e64-6974-4696-9f6e-6e6575725632,rev?*%
%TF.SameCoordinates,Original*%
%TF.FileFunction,Soldermask,Top*%
%TF.FilePolarity,Negative*%
%FSLAX46Y46*%
G04 Gerber Fmt 4.6, Leading zero omitted, Abs format (unit mm)*
G04 Created by KiCad (PCBNEW 8.0.1) date 2024-04-11 09:01:25*
%MOMM*%
%LPD*%
G01*
G04 APERTURE LIST*
G04 Aperture macros list*
%AMRoundRect*
0 Rectangle with rounded corners*
0 $1 Rounding radius*
0 $2 $3 $4 $5 $6 $7 $8 $9 X,Y pos of 4 corners*
0 Add a 4 corners polygon primitive as box body*
4,1,4,$2,$3,$4,$5,$6,$7,$8,$9,$2,$3,0*
0 Add four circle primitives for the rounded corners*
1,1,$1+$1,$2,$3*
1,1,$1+$1,$4,$5*
1,1,$1+$1,$6,$7*
1,1,$1+$1,$8,$9*
0 Add four rect primitives between the rounded corners*
20,1,$1+$1,$2,$3,$4,$5,0*
20,1,$1+$1,$4,$5,$6,$7,0*
20,1,$1+$1,$6,$7,$8,$9,0*
20,1,$1+$1,$8,$9,$2,$3,0*%
G04 Aperture macros list end*
%ADD10R,1.700000X1.700000*%
%ADD11RoundRect,0.150000X-0.825000X-0.150000X0.825000X-0.150000X0.825000X0.150000X-0.825000X0.150000X0*%
%ADD12RoundRect,0.250000X-0.450000X0.262500X-0.450000X-0.262500X0.450000X-0.262500X0.450000X0.262500X0*%
%ADD13RoundRect,0.250000X0.450000X-0.262500X0.450000X0.262500X-0.450000X0.262500X-0.450000X-0.262500X0*%
%ADD14RoundRect,0.250000X-0.262500X-0.450000X0.262500X-0.450000X0.262500X0.450000X-0.262500X0.450000X0*%
%ADD15RoundRect,0.250000X0.262500X0.450000X-0.262500X0.450000X-0.262500X-0.450000X0.262500X-0.450000X0*%
%ADD16R,1.600000X1.600000*%
%ADD17O,1.600000X1.600000*%
G04 APERTURE END LIST*
D10*
%TO.C,OUT_A1*%
X119500000Y-72000000D03*
%TD*%
D11*
%TO.C,U1*%
X118574118Y-57702992D03*
X118574118Y-58972992D03*
X118574118Y-60242992D03*
X118574118Y-61512992D03*
X118574118Y-62782992D03*
X118574118Y-64052992D03*
X118574118Y-65322992D03*
X123524118Y-65322992D03*
X123524118Y-64052992D03*
X123524118Y-62782992D03*
X123524118Y-61512992D03*
X123524118Y-60242992D03*
X123524118Y-58972992D03*
X123524118Y-57702992D03*
%TD*%
D12*
%TO.C,R4*%
X121000000Y-67087500D03*
X121000000Y-68912500D03*
%TD*%
D13*
%TO.C,R1*%
X116113155Y-61507909D03*
X116113155Y-59682909D03*
%TD*%
D10*
%TO.C,OUT_B1*%
X125000000Y-68500000D03*
%TD*%
D14*
%TO.C,R5*%
X119087500Y-75500000D03*
X120912500Y-75500000D03*
%TD*%
D12*
%TO.C,R7*%
X126000000Y-63587500D03*
X126000000Y-65412500D03*
%TD*%
D10*
%TO.C,GPIO1*%
X125250000Y-79000000D03*
%TD*%
D12*
%TO.C,R3*%
X118500000Y-67087500D03*
X118500000Y-68912500D03*
%TD*%
D10*
%TO.C,SENSOR1*%
X117250000Y-79500000D03*
%TD*%
D13*
%TO.C,R6*%
X121250000Y-80662500D03*
X121250000Y-78837500D03*
%TD*%
D15*
%TO.C,R2*%
X117912500Y-55000000D03*
X116087500Y-55000000D03*
%TD*%
D12*
%TO.C,R8*%
X126000000Y-59500000D03*
X126000000Y-61325000D03*
%TD*%
D16*
%TO.C,A1*%
X128890000Y-54015000D03*
D17*
X128890000Y-56555000D03*
X128890000Y-59095000D03*
X128890000Y-61635000D03*
X128890000Y-64175000D03*
X128890000Y-66715000D03*
X128890000Y-69255000D03*
X128890000Y-71795000D03*
X128890000Y-74335000D03*
X128890000Y-76875000D03*
X128890000Y-79415000D03*
X128890000Y-81955000D03*
X128890000Y-84495000D03*
X128890000Y-87035000D03*
X128890000Y-89575000D03*
X113650000Y-89575000D03*
X113650000Y-87035000D03*
X113650000Y-84495000D03*
X113650000Y-81955000D03*
X113650000Y-79415000D03*
X113650000Y-76875000D03*
X113650000Y-74335000D03*
X113650000Y-71795000D03*
X113650000Y-69255000D03*
X113650000Y-66715000D03*
X113650000Y-64175000D03*
X113650000Y-61635000D03*
X113650000Y-59095000D03*
X113650000Y-56555000D03*
X113650000Y-54015000D03*
%TD*%
M02*
