M48
; DRILL file {KiCad 8.0.1} date 2024-04-11T09:01:27+0200
; FORMAT={-:-/ absolute / inch / decimal}
; #@! TF.CreationDate,2024-04-11T09:01:27+02:00
; #@! TF.GenerationSoftware,Kicad,Pcbnew,8.0.1
; #@! TF.FileFunction,Plated,1,2,PTH
FMAT,2
INCH
; #@! TA.AperFunction,Plated,PTH,ComponentDrill
T1C0.0394
%
G90
G05
T1
X4.4744Y-2.1266
X4.4744Y-2.2266
X4.4744Y-2.3266
X4.4744Y-2.4266
X4.4744Y-2.5266
X4.4744Y-2.6266
X4.4744Y-2.7266
X4.4744Y-2.8266
X4.4744Y-2.9266
X4.4744Y-3.0266
X4.4744Y-3.1266
X4.4744Y-3.2266
X4.4744Y-3.3266
X4.4744Y-3.4266
X4.4744Y-3.5266
X4.6161Y-3.1299
X4.7047Y-2.8346
X4.9213Y-2.6969
X4.9311Y-3.1102
X5.0744Y-2.1266
X5.0744Y-2.2266
X5.0744Y-2.3266
X5.0744Y-2.4266
X5.0744Y-2.5266
X5.0744Y-2.6266
X5.0744Y-2.7266
X5.0744Y-2.8266
X5.0744Y-2.9266
X5.0744Y-3.0266
X5.0744Y-3.1266
X5.0744Y-3.2266
X5.0744Y-3.3266
X5.0744Y-3.4266
X5.0744Y-3.5266
M30
