%TF.GenerationSoftware,KiCad,Pcbnew,8.0.1*%
%TF.CreationDate,2024-04-11T09:01:25+02:00*%
%TF.ProjectId,ConditionneurV2,436f6e64-6974-4696-9f6e-6e6575725632,rev?*%
%TF.SameCoordinates,Original*%
%TF.FileFunction,Legend,Top*%
%TF.FilePolarity,Positive*%
%FSLAX46Y46*%
G04 Gerber Fmt 4.6, Leading zero omitted, Abs format (unit mm)*
G04 Created by KiCad (PCBNEW 8.0.1) date 2024-04-11 09:01:25*
%MOMM*%
%LPD*%
G01*
G04 APERTURE LIST*
%ADD10C,0.150000*%
%ADD11C,0.120000*%
%ADD12C,0.200000*%
G04 APERTURE END LIST*
D10*
X117214285Y-69124819D02*
X117404761Y-69124819D01*
X117404761Y-69124819D02*
X117499999Y-69172438D01*
X117499999Y-69172438D02*
X117595237Y-69267676D01*
X117595237Y-69267676D02*
X117642856Y-69458152D01*
X117642856Y-69458152D02*
X117642856Y-69791485D01*
X117642856Y-69791485D02*
X117595237Y-69981961D01*
X117595237Y-69981961D02*
X117499999Y-70077200D01*
X117499999Y-70077200D02*
X117404761Y-70124819D01*
X117404761Y-70124819D02*
X117214285Y-70124819D01*
X117214285Y-70124819D02*
X117119047Y-70077200D01*
X117119047Y-70077200D02*
X117023809Y-69981961D01*
X117023809Y-69981961D02*
X116976190Y-69791485D01*
X116976190Y-69791485D02*
X116976190Y-69458152D01*
X116976190Y-69458152D02*
X117023809Y-69267676D01*
X117023809Y-69267676D02*
X117119047Y-69172438D01*
X117119047Y-69172438D02*
X117214285Y-69124819D01*
X118071428Y-69124819D02*
X118071428Y-69934342D01*
X118071428Y-69934342D02*
X118119047Y-70029580D01*
X118119047Y-70029580D02*
X118166666Y-70077200D01*
X118166666Y-70077200D02*
X118261904Y-70124819D01*
X118261904Y-70124819D02*
X118452380Y-70124819D01*
X118452380Y-70124819D02*
X118547618Y-70077200D01*
X118547618Y-70077200D02*
X118595237Y-70029580D01*
X118595237Y-70029580D02*
X118642856Y-69934342D01*
X118642856Y-69934342D02*
X118642856Y-69124819D01*
X118976190Y-69124819D02*
X119547618Y-69124819D01*
X119261904Y-70124819D02*
X119261904Y-69124819D01*
X119642857Y-70220057D02*
X120404761Y-70220057D01*
X120595238Y-69839104D02*
X121071428Y-69839104D01*
X120500000Y-70124819D02*
X120833333Y-69124819D01*
X120833333Y-69124819D02*
X121166666Y-70124819D01*
X122023809Y-70124819D02*
X121452381Y-70124819D01*
X121738095Y-70124819D02*
X121738095Y-69124819D01*
X121738095Y-69124819D02*
X121642857Y-69267676D01*
X121642857Y-69267676D02*
X121547619Y-69362914D01*
X121547619Y-69362914D02*
X121452381Y-69410533D01*
X120287213Y-55659811D02*
X120287213Y-56469334D01*
X120287213Y-56469334D02*
X120334832Y-56564572D01*
X120334832Y-56564572D02*
X120382451Y-56612192D01*
X120382451Y-56612192D02*
X120477689Y-56659811D01*
X120477689Y-56659811D02*
X120668165Y-56659811D01*
X120668165Y-56659811D02*
X120763403Y-56612192D01*
X120763403Y-56612192D02*
X120811022Y-56564572D01*
X120811022Y-56564572D02*
X120858641Y-56469334D01*
X120858641Y-56469334D02*
X120858641Y-55659811D01*
X121858641Y-56659811D02*
X121287213Y-56659811D01*
X121572927Y-56659811D02*
X121572927Y-55659811D01*
X121572927Y-55659811D02*
X121477689Y-55802668D01*
X121477689Y-55802668D02*
X121382451Y-55897906D01*
X121382451Y-55897906D02*
X121287213Y-55945525D01*
X123104819Y-68166666D02*
X122628628Y-68499999D01*
X123104819Y-68738094D02*
X122104819Y-68738094D01*
X122104819Y-68738094D02*
X122104819Y-68357142D01*
X122104819Y-68357142D02*
X122152438Y-68261904D01*
X122152438Y-68261904D02*
X122200057Y-68214285D01*
X122200057Y-68214285D02*
X122295295Y-68166666D01*
X122295295Y-68166666D02*
X122438152Y-68166666D01*
X122438152Y-68166666D02*
X122533390Y-68214285D01*
X122533390Y-68214285D02*
X122581009Y-68261904D01*
X122581009Y-68261904D02*
X122628628Y-68357142D01*
X122628628Y-68357142D02*
X122628628Y-68738094D01*
X122438152Y-67309523D02*
X123104819Y-67309523D01*
X122057200Y-67547618D02*
X122771485Y-67785713D01*
X122771485Y-67785713D02*
X122771485Y-67166666D01*
X114917974Y-60762075D02*
X114441783Y-61095408D01*
X114917974Y-61333503D02*
X113917974Y-61333503D01*
X113917974Y-61333503D02*
X113917974Y-60952551D01*
X113917974Y-60952551D02*
X113965593Y-60857313D01*
X113965593Y-60857313D02*
X114013212Y-60809694D01*
X114013212Y-60809694D02*
X114108450Y-60762075D01*
X114108450Y-60762075D02*
X114251307Y-60762075D01*
X114251307Y-60762075D02*
X114346545Y-60809694D01*
X114346545Y-60809694D02*
X114394164Y-60857313D01*
X114394164Y-60857313D02*
X114441783Y-60952551D01*
X114441783Y-60952551D02*
X114441783Y-61333503D01*
X114917974Y-59809694D02*
X114917974Y-60381122D01*
X114917974Y-60095408D02*
X113917974Y-60095408D01*
X113917974Y-60095408D02*
X114060831Y-60190646D01*
X114060831Y-60190646D02*
X114156069Y-60285884D01*
X114156069Y-60285884D02*
X114203688Y-60381122D01*
X122642857Y-65624819D02*
X122833333Y-65624819D01*
X122833333Y-65624819D02*
X122928571Y-65672438D01*
X122928571Y-65672438D02*
X123023809Y-65767676D01*
X123023809Y-65767676D02*
X123071428Y-65958152D01*
X123071428Y-65958152D02*
X123071428Y-66291485D01*
X123071428Y-66291485D02*
X123023809Y-66481961D01*
X123023809Y-66481961D02*
X122928571Y-66577200D01*
X122928571Y-66577200D02*
X122833333Y-66624819D01*
X122833333Y-66624819D02*
X122642857Y-66624819D01*
X122642857Y-66624819D02*
X122547619Y-66577200D01*
X122547619Y-66577200D02*
X122452381Y-66481961D01*
X122452381Y-66481961D02*
X122404762Y-66291485D01*
X122404762Y-66291485D02*
X122404762Y-65958152D01*
X122404762Y-65958152D02*
X122452381Y-65767676D01*
X122452381Y-65767676D02*
X122547619Y-65672438D01*
X122547619Y-65672438D02*
X122642857Y-65624819D01*
X123500000Y-65624819D02*
X123500000Y-66434342D01*
X123500000Y-66434342D02*
X123547619Y-66529580D01*
X123547619Y-66529580D02*
X123595238Y-66577200D01*
X123595238Y-66577200D02*
X123690476Y-66624819D01*
X123690476Y-66624819D02*
X123880952Y-66624819D01*
X123880952Y-66624819D02*
X123976190Y-66577200D01*
X123976190Y-66577200D02*
X124023809Y-66529580D01*
X124023809Y-66529580D02*
X124071428Y-66434342D01*
X124071428Y-66434342D02*
X124071428Y-65624819D01*
X124404762Y-65624819D02*
X124976190Y-65624819D01*
X124690476Y-66624819D02*
X124690476Y-65624819D01*
X125071429Y-66720057D02*
X125833333Y-66720057D01*
X126404762Y-66101009D02*
X126547619Y-66148628D01*
X126547619Y-66148628D02*
X126595238Y-66196247D01*
X126595238Y-66196247D02*
X126642857Y-66291485D01*
X126642857Y-66291485D02*
X126642857Y-66434342D01*
X126642857Y-66434342D02*
X126595238Y-66529580D01*
X126595238Y-66529580D02*
X126547619Y-66577200D01*
X126547619Y-66577200D02*
X126452381Y-66624819D01*
X126452381Y-66624819D02*
X126071429Y-66624819D01*
X126071429Y-66624819D02*
X126071429Y-65624819D01*
X126071429Y-65624819D02*
X126404762Y-65624819D01*
X126404762Y-65624819D02*
X126500000Y-65672438D01*
X126500000Y-65672438D02*
X126547619Y-65720057D01*
X126547619Y-65720057D02*
X126595238Y-65815295D01*
X126595238Y-65815295D02*
X126595238Y-65910533D01*
X126595238Y-65910533D02*
X126547619Y-66005771D01*
X126547619Y-66005771D02*
X126500000Y-66053390D01*
X126500000Y-66053390D02*
X126404762Y-66101009D01*
X126404762Y-66101009D02*
X126071429Y-66101009D01*
X127595238Y-66624819D02*
X127023810Y-66624819D01*
X127309524Y-66624819D02*
X127309524Y-65624819D01*
X127309524Y-65624819D02*
X127214286Y-65767676D01*
X127214286Y-65767676D02*
X127119048Y-65862914D01*
X127119048Y-65862914D02*
X127023810Y-65910533D01*
X119833333Y-74304819D02*
X119500000Y-73828628D01*
X119261905Y-74304819D02*
X119261905Y-73304819D01*
X119261905Y-73304819D02*
X119642857Y-73304819D01*
X119642857Y-73304819D02*
X119738095Y-73352438D01*
X119738095Y-73352438D02*
X119785714Y-73400057D01*
X119785714Y-73400057D02*
X119833333Y-73495295D01*
X119833333Y-73495295D02*
X119833333Y-73638152D01*
X119833333Y-73638152D02*
X119785714Y-73733390D01*
X119785714Y-73733390D02*
X119738095Y-73781009D01*
X119738095Y-73781009D02*
X119642857Y-73828628D01*
X119642857Y-73828628D02*
X119261905Y-73828628D01*
X120738095Y-73304819D02*
X120261905Y-73304819D01*
X120261905Y-73304819D02*
X120214286Y-73781009D01*
X120214286Y-73781009D02*
X120261905Y-73733390D01*
X120261905Y-73733390D02*
X120357143Y-73685771D01*
X120357143Y-73685771D02*
X120595238Y-73685771D01*
X120595238Y-73685771D02*
X120690476Y-73733390D01*
X120690476Y-73733390D02*
X120738095Y-73781009D01*
X120738095Y-73781009D02*
X120785714Y-73876247D01*
X120785714Y-73876247D02*
X120785714Y-74114342D01*
X120785714Y-74114342D02*
X120738095Y-74209580D01*
X120738095Y-74209580D02*
X120690476Y-74257200D01*
X120690476Y-74257200D02*
X120595238Y-74304819D01*
X120595238Y-74304819D02*
X120357143Y-74304819D01*
X120357143Y-74304819D02*
X120261905Y-74257200D01*
X120261905Y-74257200D02*
X120214286Y-74209580D01*
X128104819Y-64666666D02*
X127628628Y-64999999D01*
X128104819Y-65238094D02*
X127104819Y-65238094D01*
X127104819Y-65238094D02*
X127104819Y-64857142D01*
X127104819Y-64857142D02*
X127152438Y-64761904D01*
X127152438Y-64761904D02*
X127200057Y-64714285D01*
X127200057Y-64714285D02*
X127295295Y-64666666D01*
X127295295Y-64666666D02*
X127438152Y-64666666D01*
X127438152Y-64666666D02*
X127533390Y-64714285D01*
X127533390Y-64714285D02*
X127581009Y-64761904D01*
X127581009Y-64761904D02*
X127628628Y-64857142D01*
X127628628Y-64857142D02*
X127628628Y-65238094D01*
X127104819Y-64333332D02*
X127104819Y-63666666D01*
X127104819Y-63666666D02*
X128104819Y-64095237D01*
X123773809Y-76172438D02*
X123678571Y-76124819D01*
X123678571Y-76124819D02*
X123535714Y-76124819D01*
X123535714Y-76124819D02*
X123392857Y-76172438D01*
X123392857Y-76172438D02*
X123297619Y-76267676D01*
X123297619Y-76267676D02*
X123250000Y-76362914D01*
X123250000Y-76362914D02*
X123202381Y-76553390D01*
X123202381Y-76553390D02*
X123202381Y-76696247D01*
X123202381Y-76696247D02*
X123250000Y-76886723D01*
X123250000Y-76886723D02*
X123297619Y-76981961D01*
X123297619Y-76981961D02*
X123392857Y-77077200D01*
X123392857Y-77077200D02*
X123535714Y-77124819D01*
X123535714Y-77124819D02*
X123630952Y-77124819D01*
X123630952Y-77124819D02*
X123773809Y-77077200D01*
X123773809Y-77077200D02*
X123821428Y-77029580D01*
X123821428Y-77029580D02*
X123821428Y-76696247D01*
X123821428Y-76696247D02*
X123630952Y-76696247D01*
X124250000Y-77124819D02*
X124250000Y-76124819D01*
X124250000Y-76124819D02*
X124630952Y-76124819D01*
X124630952Y-76124819D02*
X124726190Y-76172438D01*
X124726190Y-76172438D02*
X124773809Y-76220057D01*
X124773809Y-76220057D02*
X124821428Y-76315295D01*
X124821428Y-76315295D02*
X124821428Y-76458152D01*
X124821428Y-76458152D02*
X124773809Y-76553390D01*
X124773809Y-76553390D02*
X124726190Y-76601009D01*
X124726190Y-76601009D02*
X124630952Y-76648628D01*
X124630952Y-76648628D02*
X124250000Y-76648628D01*
X125250000Y-77124819D02*
X125250000Y-76124819D01*
X125916666Y-76124819D02*
X126107142Y-76124819D01*
X126107142Y-76124819D02*
X126202380Y-76172438D01*
X126202380Y-76172438D02*
X126297618Y-76267676D01*
X126297618Y-76267676D02*
X126345237Y-76458152D01*
X126345237Y-76458152D02*
X126345237Y-76791485D01*
X126345237Y-76791485D02*
X126297618Y-76981961D01*
X126297618Y-76981961D02*
X126202380Y-77077200D01*
X126202380Y-77077200D02*
X126107142Y-77124819D01*
X126107142Y-77124819D02*
X125916666Y-77124819D01*
X125916666Y-77124819D02*
X125821428Y-77077200D01*
X125821428Y-77077200D02*
X125726190Y-76981961D01*
X125726190Y-76981961D02*
X125678571Y-76791485D01*
X125678571Y-76791485D02*
X125678571Y-76458152D01*
X125678571Y-76458152D02*
X125726190Y-76267676D01*
X125726190Y-76267676D02*
X125821428Y-76172438D01*
X125821428Y-76172438D02*
X125916666Y-76124819D01*
X127297618Y-77124819D02*
X126726190Y-77124819D01*
X127011904Y-77124819D02*
X127011904Y-76124819D01*
X127011904Y-76124819D02*
X126916666Y-76267676D01*
X126916666Y-76267676D02*
X126821428Y-76362914D01*
X126821428Y-76362914D02*
X126726190Y-76410533D01*
X120604819Y-68166666D02*
X120128628Y-68499999D01*
X120604819Y-68738094D02*
X119604819Y-68738094D01*
X119604819Y-68738094D02*
X119604819Y-68357142D01*
X119604819Y-68357142D02*
X119652438Y-68261904D01*
X119652438Y-68261904D02*
X119700057Y-68214285D01*
X119700057Y-68214285D02*
X119795295Y-68166666D01*
X119795295Y-68166666D02*
X119938152Y-68166666D01*
X119938152Y-68166666D02*
X120033390Y-68214285D01*
X120033390Y-68214285D02*
X120081009Y-68261904D01*
X120081009Y-68261904D02*
X120128628Y-68357142D01*
X120128628Y-68357142D02*
X120128628Y-68738094D01*
X119604819Y-67833332D02*
X119604819Y-67214285D01*
X119604819Y-67214285D02*
X119985771Y-67547618D01*
X119985771Y-67547618D02*
X119985771Y-67404761D01*
X119985771Y-67404761D02*
X120033390Y-67309523D01*
X120033390Y-67309523D02*
X120081009Y-67261904D01*
X120081009Y-67261904D02*
X120176247Y-67214285D01*
X120176247Y-67214285D02*
X120414342Y-67214285D01*
X120414342Y-67214285D02*
X120509580Y-67261904D01*
X120509580Y-67261904D02*
X120557200Y-67309523D01*
X120557200Y-67309523D02*
X120604819Y-67404761D01*
X120604819Y-67404761D02*
X120604819Y-67690475D01*
X120604819Y-67690475D02*
X120557200Y-67785713D01*
X120557200Y-67785713D02*
X120509580Y-67833332D01*
X114011905Y-77577200D02*
X114154762Y-77624819D01*
X114154762Y-77624819D02*
X114392857Y-77624819D01*
X114392857Y-77624819D02*
X114488095Y-77577200D01*
X114488095Y-77577200D02*
X114535714Y-77529580D01*
X114535714Y-77529580D02*
X114583333Y-77434342D01*
X114583333Y-77434342D02*
X114583333Y-77339104D01*
X114583333Y-77339104D02*
X114535714Y-77243866D01*
X114535714Y-77243866D02*
X114488095Y-77196247D01*
X114488095Y-77196247D02*
X114392857Y-77148628D01*
X114392857Y-77148628D02*
X114202381Y-77101009D01*
X114202381Y-77101009D02*
X114107143Y-77053390D01*
X114107143Y-77053390D02*
X114059524Y-77005771D01*
X114059524Y-77005771D02*
X114011905Y-76910533D01*
X114011905Y-76910533D02*
X114011905Y-76815295D01*
X114011905Y-76815295D02*
X114059524Y-76720057D01*
X114059524Y-76720057D02*
X114107143Y-76672438D01*
X114107143Y-76672438D02*
X114202381Y-76624819D01*
X114202381Y-76624819D02*
X114440476Y-76624819D01*
X114440476Y-76624819D02*
X114583333Y-76672438D01*
X115011905Y-77101009D02*
X115345238Y-77101009D01*
X115488095Y-77624819D02*
X115011905Y-77624819D01*
X115011905Y-77624819D02*
X115011905Y-76624819D01*
X115011905Y-76624819D02*
X115488095Y-76624819D01*
X115916667Y-77624819D02*
X115916667Y-76624819D01*
X115916667Y-76624819D02*
X116488095Y-77624819D01*
X116488095Y-77624819D02*
X116488095Y-76624819D01*
X116916667Y-77577200D02*
X117059524Y-77624819D01*
X117059524Y-77624819D02*
X117297619Y-77624819D01*
X117297619Y-77624819D02*
X117392857Y-77577200D01*
X117392857Y-77577200D02*
X117440476Y-77529580D01*
X117440476Y-77529580D02*
X117488095Y-77434342D01*
X117488095Y-77434342D02*
X117488095Y-77339104D01*
X117488095Y-77339104D02*
X117440476Y-77243866D01*
X117440476Y-77243866D02*
X117392857Y-77196247D01*
X117392857Y-77196247D02*
X117297619Y-77148628D01*
X117297619Y-77148628D02*
X117107143Y-77101009D01*
X117107143Y-77101009D02*
X117011905Y-77053390D01*
X117011905Y-77053390D02*
X116964286Y-77005771D01*
X116964286Y-77005771D02*
X116916667Y-76910533D01*
X116916667Y-76910533D02*
X116916667Y-76815295D01*
X116916667Y-76815295D02*
X116964286Y-76720057D01*
X116964286Y-76720057D02*
X117011905Y-76672438D01*
X117011905Y-76672438D02*
X117107143Y-76624819D01*
X117107143Y-76624819D02*
X117345238Y-76624819D01*
X117345238Y-76624819D02*
X117488095Y-76672438D01*
X118107143Y-76624819D02*
X118297619Y-76624819D01*
X118297619Y-76624819D02*
X118392857Y-76672438D01*
X118392857Y-76672438D02*
X118488095Y-76767676D01*
X118488095Y-76767676D02*
X118535714Y-76958152D01*
X118535714Y-76958152D02*
X118535714Y-77291485D01*
X118535714Y-77291485D02*
X118488095Y-77481961D01*
X118488095Y-77481961D02*
X118392857Y-77577200D01*
X118392857Y-77577200D02*
X118297619Y-77624819D01*
X118297619Y-77624819D02*
X118107143Y-77624819D01*
X118107143Y-77624819D02*
X118011905Y-77577200D01*
X118011905Y-77577200D02*
X117916667Y-77481961D01*
X117916667Y-77481961D02*
X117869048Y-77291485D01*
X117869048Y-77291485D02*
X117869048Y-76958152D01*
X117869048Y-76958152D02*
X117916667Y-76767676D01*
X117916667Y-76767676D02*
X118011905Y-76672438D01*
X118011905Y-76672438D02*
X118107143Y-76624819D01*
X119535714Y-77624819D02*
X119202381Y-77148628D01*
X118964286Y-77624819D02*
X118964286Y-76624819D01*
X118964286Y-76624819D02*
X119345238Y-76624819D01*
X119345238Y-76624819D02*
X119440476Y-76672438D01*
X119440476Y-76672438D02*
X119488095Y-76720057D01*
X119488095Y-76720057D02*
X119535714Y-76815295D01*
X119535714Y-76815295D02*
X119535714Y-76958152D01*
X119535714Y-76958152D02*
X119488095Y-77053390D01*
X119488095Y-77053390D02*
X119440476Y-77101009D01*
X119440476Y-77101009D02*
X119345238Y-77148628D01*
X119345238Y-77148628D02*
X118964286Y-77148628D01*
X120488095Y-77624819D02*
X119916667Y-77624819D01*
X120202381Y-77624819D02*
X120202381Y-76624819D01*
X120202381Y-76624819D02*
X120107143Y-76767676D01*
X120107143Y-76767676D02*
X120011905Y-76862914D01*
X120011905Y-76862914D02*
X119916667Y-76910533D01*
X120054819Y-79916666D02*
X119578628Y-80249999D01*
X120054819Y-80488094D02*
X119054819Y-80488094D01*
X119054819Y-80488094D02*
X119054819Y-80107142D01*
X119054819Y-80107142D02*
X119102438Y-80011904D01*
X119102438Y-80011904D02*
X119150057Y-79964285D01*
X119150057Y-79964285D02*
X119245295Y-79916666D01*
X119245295Y-79916666D02*
X119388152Y-79916666D01*
X119388152Y-79916666D02*
X119483390Y-79964285D01*
X119483390Y-79964285D02*
X119531009Y-80011904D01*
X119531009Y-80011904D02*
X119578628Y-80107142D01*
X119578628Y-80107142D02*
X119578628Y-80488094D01*
X119054819Y-79059523D02*
X119054819Y-79249999D01*
X119054819Y-79249999D02*
X119102438Y-79345237D01*
X119102438Y-79345237D02*
X119150057Y-79392856D01*
X119150057Y-79392856D02*
X119292914Y-79488094D01*
X119292914Y-79488094D02*
X119483390Y-79535713D01*
X119483390Y-79535713D02*
X119864342Y-79535713D01*
X119864342Y-79535713D02*
X119959580Y-79488094D01*
X119959580Y-79488094D02*
X120007200Y-79440475D01*
X120007200Y-79440475D02*
X120054819Y-79345237D01*
X120054819Y-79345237D02*
X120054819Y-79154761D01*
X120054819Y-79154761D02*
X120007200Y-79059523D01*
X120007200Y-79059523D02*
X119959580Y-79011904D01*
X119959580Y-79011904D02*
X119864342Y-78964285D01*
X119864342Y-78964285D02*
X119626247Y-78964285D01*
X119626247Y-78964285D02*
X119531009Y-79011904D01*
X119531009Y-79011904D02*
X119483390Y-79059523D01*
X119483390Y-79059523D02*
X119435771Y-79154761D01*
X119435771Y-79154761D02*
X119435771Y-79345237D01*
X119435771Y-79345237D02*
X119483390Y-79440475D01*
X119483390Y-79440475D02*
X119531009Y-79488094D01*
X119531009Y-79488094D02*
X119626247Y-79535713D01*
X116833333Y-57104819D02*
X116500000Y-56628628D01*
X116261905Y-57104819D02*
X116261905Y-56104819D01*
X116261905Y-56104819D02*
X116642857Y-56104819D01*
X116642857Y-56104819D02*
X116738095Y-56152438D01*
X116738095Y-56152438D02*
X116785714Y-56200057D01*
X116785714Y-56200057D02*
X116833333Y-56295295D01*
X116833333Y-56295295D02*
X116833333Y-56438152D01*
X116833333Y-56438152D02*
X116785714Y-56533390D01*
X116785714Y-56533390D02*
X116738095Y-56581009D01*
X116738095Y-56581009D02*
X116642857Y-56628628D01*
X116642857Y-56628628D02*
X116261905Y-56628628D01*
X117214286Y-56200057D02*
X117261905Y-56152438D01*
X117261905Y-56152438D02*
X117357143Y-56104819D01*
X117357143Y-56104819D02*
X117595238Y-56104819D01*
X117595238Y-56104819D02*
X117690476Y-56152438D01*
X117690476Y-56152438D02*
X117738095Y-56200057D01*
X117738095Y-56200057D02*
X117785714Y-56295295D01*
X117785714Y-56295295D02*
X117785714Y-56390533D01*
X117785714Y-56390533D02*
X117738095Y-56533390D01*
X117738095Y-56533390D02*
X117166667Y-57104819D01*
X117166667Y-57104819D02*
X117785714Y-57104819D01*
X128104819Y-60579166D02*
X127628628Y-60912499D01*
X128104819Y-61150594D02*
X127104819Y-61150594D01*
X127104819Y-61150594D02*
X127104819Y-60769642D01*
X127104819Y-60769642D02*
X127152438Y-60674404D01*
X127152438Y-60674404D02*
X127200057Y-60626785D01*
X127200057Y-60626785D02*
X127295295Y-60579166D01*
X127295295Y-60579166D02*
X127438152Y-60579166D01*
X127438152Y-60579166D02*
X127533390Y-60626785D01*
X127533390Y-60626785D02*
X127581009Y-60674404D01*
X127581009Y-60674404D02*
X127628628Y-60769642D01*
X127628628Y-60769642D02*
X127628628Y-61150594D01*
X127533390Y-60007737D02*
X127485771Y-60102975D01*
X127485771Y-60102975D02*
X127438152Y-60150594D01*
X127438152Y-60150594D02*
X127342914Y-60198213D01*
X127342914Y-60198213D02*
X127295295Y-60198213D01*
X127295295Y-60198213D02*
X127200057Y-60150594D01*
X127200057Y-60150594D02*
X127152438Y-60102975D01*
X127152438Y-60102975D02*
X127104819Y-60007737D01*
X127104819Y-60007737D02*
X127104819Y-59817261D01*
X127104819Y-59817261D02*
X127152438Y-59722023D01*
X127152438Y-59722023D02*
X127200057Y-59674404D01*
X127200057Y-59674404D02*
X127295295Y-59626785D01*
X127295295Y-59626785D02*
X127342914Y-59626785D01*
X127342914Y-59626785D02*
X127438152Y-59674404D01*
X127438152Y-59674404D02*
X127485771Y-59722023D01*
X127485771Y-59722023D02*
X127533390Y-59817261D01*
X127533390Y-59817261D02*
X127533390Y-60007737D01*
X127533390Y-60007737D02*
X127581009Y-60102975D01*
X127581009Y-60102975D02*
X127628628Y-60150594D01*
X127628628Y-60150594D02*
X127723866Y-60198213D01*
X127723866Y-60198213D02*
X127914342Y-60198213D01*
X127914342Y-60198213D02*
X128009580Y-60150594D01*
X128009580Y-60150594D02*
X128057200Y-60102975D01*
X128057200Y-60102975D02*
X128104819Y-60007737D01*
X128104819Y-60007737D02*
X128104819Y-59817261D01*
X128104819Y-59817261D02*
X128057200Y-59722023D01*
X128057200Y-59722023D02*
X128009580Y-59674404D01*
X128009580Y-59674404D02*
X127914342Y-59626785D01*
X127914342Y-59626785D02*
X127723866Y-59626785D01*
X127723866Y-59626785D02*
X127628628Y-59674404D01*
X127628628Y-59674404D02*
X127581009Y-59722023D01*
X127581009Y-59722023D02*
X127533390Y-59817261D01*
D11*
%TO.C,OUT_A1*%
X118170000Y-70670000D02*
X119500000Y-70670000D01*
X118170000Y-72000000D02*
X118170000Y-70670000D01*
X118170000Y-73270000D02*
X118170000Y-73330000D01*
X118170000Y-73270000D02*
X120830000Y-73270000D01*
X118170000Y-73330000D02*
X120830000Y-73330000D01*
X120830000Y-73270000D02*
X120830000Y-73330000D01*
%TO.C,U1*%
X117249118Y-57412992D02*
X117249118Y-66112992D01*
X117249118Y-66112992D02*
X124849118Y-66112992D01*
X124849118Y-56912992D02*
X117749118Y-56912992D01*
X124849118Y-66112992D02*
X124849118Y-56912992D01*
D12*
X117512618Y-57112992D02*
G75*
G02*
X117385618Y-57112992I-63500J0D01*
G01*
X117385618Y-57112992D02*
G75*
G02*
X117512618Y-57112992I63500J0D01*
G01*
D11*
%TO.C,R4*%
X121735000Y-67772936D02*
X121735000Y-68227064D01*
X120265000Y-67772936D02*
X120265000Y-68227064D01*
%TO.C,R1*%
X116848155Y-60822473D02*
X116848155Y-60368345D01*
X115378155Y-60822473D02*
X115378155Y-60368345D01*
%TO.C,OUT_B1*%
X126330000Y-69770000D02*
X126330000Y-69830000D01*
X123670000Y-69830000D02*
X126330000Y-69830000D01*
X123670000Y-69770000D02*
X126330000Y-69770000D01*
X123670000Y-69770000D02*
X123670000Y-69830000D01*
X123670000Y-68500000D02*
X123670000Y-67170000D01*
X123670000Y-67170000D02*
X125000000Y-67170000D01*
%TO.C,R5*%
X119772936Y-74765000D02*
X120227064Y-74765000D01*
X119772936Y-76235000D02*
X120227064Y-76235000D01*
%TO.C,R7*%
X126735000Y-64272936D02*
X126735000Y-64727064D01*
X125265000Y-64272936D02*
X125265000Y-64727064D01*
%TO.C,GPIO1*%
X123920000Y-77670000D02*
X125250000Y-77670000D01*
X123920000Y-79000000D02*
X123920000Y-77670000D01*
X123920000Y-80270000D02*
X123920000Y-80330000D01*
X123920000Y-80270000D02*
X126580000Y-80270000D01*
X123920000Y-80330000D02*
X126580000Y-80330000D01*
X126580000Y-80270000D02*
X126580000Y-80330000D01*
%TO.C,R3*%
X119235000Y-67772936D02*
X119235000Y-68227064D01*
X117765000Y-67772936D02*
X117765000Y-68227064D01*
%TO.C,SENSOR1*%
X115920000Y-78170000D02*
X117250000Y-78170000D01*
X115920000Y-79500000D02*
X115920000Y-78170000D01*
X115920000Y-80770000D02*
X115920000Y-80830000D01*
X115920000Y-80770000D02*
X118580000Y-80770000D01*
X115920000Y-80830000D02*
X118580000Y-80830000D01*
X118580000Y-80770000D02*
X118580000Y-80830000D01*
%TO.C,R6*%
X120515000Y-79977064D02*
X120515000Y-79522936D01*
X121985000Y-79977064D02*
X121985000Y-79522936D01*
%TO.C,R2*%
X117227064Y-55735000D02*
X116772936Y-55735000D01*
X117227064Y-54265000D02*
X116772936Y-54265000D01*
%TO.C,R8*%
X126735000Y-60185436D02*
X126735000Y-60639564D01*
X125265000Y-60185436D02*
X125265000Y-60639564D01*
%TD*%
M02*
